<svg xmlns="http://www.w3.org/2000/svg" enable-background="new 0 0 48 48" viewBox="0 0 48 48" id="animation">
  <path fill="#7e57c2" d="M12.36,26.917h5.676l1.167,3.026c0.437,1.131,0.082,2.415-0.873,3.163L7.24,41.782L12.36,26.917z"></path>
  <path fill="#ffe0b2" d="M6.999,29c-0.311,0-0.626-0.072-0.921-0.226c-0.98-0.509-1.362-1.717-0.852-2.697l2.079-4
	c0.146-0.279,0.355-0.521,0.612-0.705l7-5c0.898-0.642,2.148-0.434,2.79,0.466c0.642,0.898,0.434,2.147-0.465,2.79l-6.609,4.721
	l-1.858,3.574C8.418,28.607,7.721,29,6.999,29z"></path>
  <circle cx="20" cy="10" r="5" fill="#ffe0b2"></circle>
  <path fill="#9575cd" d="M20.56,17.869l-0.363-0.484C19.543,16.513,18.517,16,17.427,16h-1.697
	c-1.536,0-2.899,0.983-3.384,2.441l-2.179,10.476L4.123,40.419C3.656,41.669,4.58,43,5.913,43c0.624,0,1.208-0.304,1.566-0.815
	l10.689-15.268l2.802-4.534C21.698,20.922,21.54,19.175,20.56,17.869z"></path>
  <path fill="#512da8" d="M24.36,26.917h5.676l3.755,1.671c1.751,0.779,1.554,3.325-0.296,3.826l-12.636,3.42L24.36,26.917z"></path>
  <path fill="#ffb74d" d="M16,26c-0.517,0-1.034-0.199-1.425-0.597c-0.775-0.787-0.765-2.054,0.022-2.828l5.079-5
	c0.304-0.3,0.697-0.495,1.12-0.555l7-1c1.092-0.156,2.107,0.604,2.263,1.696c0.156,1.094-0.604,2.106-1.697,2.263l-6.349,0.907
	l-4.61,4.538C17.014,25.809,16.507,26,16,26z"></path>
  <circle cx="32" cy="10" r="5" fill="#ffb74d"></circle>
  <path fill="#673ab7" d="M32.56,17.869l-0.363-0.484C31.543,16.513,30.517,16,29.427,16h-1.697
	c-1.536,0-2.899,0.983-3.384,2.441l-2.179,10.476l-6.045,11.503C15.656,41.669,16.58,43,17.913,43c0.624,0,1.208-0.304,1.566-0.815
	l10.689-15.268l2.802-4.534C33.698,20.922,33.54,19.175,32.56,17.869z"></path>
  <path fill="#ffb74d" d="M35,26c-0.525,0-1.042-0.207-1.426-0.597l-4.921-5c-0.775-0.788-0.765-2.054,0.022-2.829
	c0.788-0.773,2.055-0.763,2.828,0.022l3.963,4.027l5.745-2.462c1.015-0.438,2.19,0.035,2.626,1.05
	c0.435,1.016-0.035,2.191-1.051,2.626l-7,3C35.534,25.947,35.266,26,35,26z"></path>
</svg>
