<svg xmlns="http://www.w3.org/2000/svg" enable-background="new 0 0 256 256" viewBox="0 0 256 256" id="adobe-audition">
  <path fill="#00005b" d="M50,12h156c23.2,0,42,18.8,42,42v148c0,23.2-18.8,42-42,42H50c-23.2,0-42-18.8-42-42V54
				C8,30.8,26.8,12,50,12z"></path>
  <path fill="#99f" d="M211.5 105.2V168c0 8.8.2 10.6 1.9 14.8.1.4.1.8-.2.9-.4.2-.8.3-1.2.2h-17.4c-.7.1-1.4-.3-1.7-1-.6-1.5-.9-3.1-1-4.8-5.6 5.2-12.9 7.8-21.9 7.8-17.8 0-26.7-10-26.7-30.1v-50.6c-.1-.6.4-1.2 1-1.3.1 0 .2 0 .3 0h17.5c.8 0 1.2.4 1.2 1.3v49.3c0 10.6 4.5 15.4 13.1 15.4 5.6 0 11.3-1.6 14.9-5.7v-59c-.1-.6.4-1.2 1-1.3.1 0 .2 0 .3 0h17.3C211.1 104 211.5 104.4 211.5 105.2zM107.3 158H71.5l-9.2 26.7c-.1.9-.7 1.3-1.7 1.3H43.8c-1.1 0-1.5-.6-1.2-1.6L75 88.1c.9-2.9 1.4-6 1.3-9.1-.1-.5.3-.9.8-1 .1 0 .2 0 .2 0h23.5c.7 0 1.1.3 1.2.8l36.3 105.7c.3 1 .1 1.5-.8 1.5h-18.8c-.7 0-1.4-.4-1.7-1L107.3 158zM75.5 140h27.9c-.7-1.5-13.2-41.9-14.1-45.3h-.2L75.5 140z"></path>
</svg>
