<svg xmlns="http://www.w3.org/2000/svg" width="64" height="64" fill="none" viewBox="0 0 64 64" id="working">
  <path fill="url(#paint0_linear_72_22764)" fill-rule="evenodd" d="M31.8047 44.6904C32.4511 44.6904 33.0712 44.9472 33.5283 45.4043C33.9854 45.8614 34.2422 46.4815 34.2422 47.1279C34.2422 47.7744 33.9854 48.3945 33.5283 48.8516C33.0712 49.3087 32.4511 49.5654 31.8047 49.5654C31.1583 49.5654 30.5382 49.3086 30.0811 48.8516C29.624 48.3945 29.3672 47.7744 29.3672 47.1279C29.3672 46.4815 29.624 45.8614 30.0811 45.4043C30.5382 44.9472 31.1583 44.6904 31.8047 44.6904ZM31.8047 46.1904C31.5561 46.1904 31.3174 46.2891 31.1416 46.4648C30.9658 46.6406 30.8672 46.8793 30.8672 47.1279C30.8672 47.3765 30.9658 47.6152 31.1416 47.791C31.3174 47.9668 31.5561 48.0654 31.8047 48.0654C32.0533 48.0654 32.292 47.9668 32.4678 47.791C32.6436 47.6152 32.7422 47.3765 32.7422 47.1279C32.7422 46.8793 32.6435 46.6406 32.4678 46.4648C32.292 46.2891 32.0533 46.1904 31.8047 46.1904Z" clip-rule="evenodd"></path>
  <path fill="url(#paint1_linear_72_22764)" d="M30.4082 24.125C30.6004 23.7971 31.0131 23.6618 31.3662 23.8232C31.7424 23.9954 31.9078 24.439 31.7363 24.8154V24.8174C31.7359 24.8184 31.7352 24.8204 31.7344 24.8223C31.7322 24.8271 31.7281 24.8347 31.7236 24.8447C31.7144 24.8657 31.7011 24.8983 31.6836 24.9395C31.6484 25.0223 31.5988 25.1423 31.5439 25.2861C31.4327 25.5781 31.3049 25.9543 31.2217 26.3184C31.1447 26.6553 31.1275 26.9041 31.1436 27.0527C31.5157 27.0968 31.8046 27.4129 31.8047 27.7969C31.8044 28.2108 31.4687 28.5468 31.0547 28.5469C30.7239 28.5469 30.3951 28.4525 30.1289 28.2197C29.8718 27.9947 29.7469 27.7043 29.6885 27.4492C29.5785 26.9675 29.6599 26.4161 29.7588 25.9834C29.8636 25.5249 30.0187 25.0771 30.1426 24.752C30.2051 24.5879 30.2616 24.4505 30.3027 24.3535C30.3233 24.3051 30.3405 24.2655 30.3525 24.2383C30.3583 24.2253 30.3628 24.2146 30.3662 24.207C30.3679 24.2034 30.3691 24.1996 30.3701 24.1973C30.3706 24.1963 30.3716 24.195 30.3721 24.1943L30.4082 24.125Z"></path>
  <path fill="url(#paint2_linear_72_22764)" fill-rule="evenodd" d="M32.0576 2C37.103 2 39.5714 3.56244 40.7041 5.36523C41.2557 6.24326 41.4502 7.11854 41.5068 7.77051C41.5154 7.86947 41.5194 7.96404 41.5225 8.05273C42.861 8.25804 43.8157 9.28181 44.4258 10.5225C45.1593 12.0146 45.5081 13.9977 45.542 15.9404C45.5624 17.1133 45.4677 18.3049 45.2588 19.4043C45.2721 19.4375 45.2875 19.4734 45.3027 19.5127C45.3824 19.7187 45.4871 20.011 45.5889 20.3604C45.79 21.0511 45.9928 22.008 45.9502 22.9902C45.9073 23.9768 45.6111 25.0588 44.7432 25.8877C43.954 26.6411 42.7883 27.0921 41.1846 27.168C40.5731 28.4938 39.7461 29.6884 38.7314 30.6768C38.0989 31.2928 37.4053 31.8133 36.6709 32.2354C40.2623 32.9804 43.5203 34.5633 46.1982 36.7637H47.5078C49.6259 36.7637 51.1522 38.5227 50.8516 40.6201L50.6729 41.8633C52.5261 44.8593 53.5938 48.3428 53.5938 52.0625V52.0693C53.5813 53.3884 53.4302 54.702 53.1475 55.9922H54.9961C56.655 55.9923 58 57.3371 58 58.9961C58 60.6551 56.655 61.9999 54.9961 62H9.00391C7.34489 62 6 60.6551 6 58.9961C6 57.3371 7.34489 55.9922 9.00391 55.9922H10.8525C10.5698 54.7019 10.4189 53.3883 10.4062 52.0693V52.0625C10.4062 48.5598 11.3544 45.2675 13.0117 42.3936L12.7578 40.6201C12.4572 38.5227 13.9834 36.7637 16.1016 36.7637H17.8018C20.4998 34.5467 23.7866 32.9557 27.4102 32.2178C26.7273 31.8219 26.0808 31.3395 25.4854 30.7744C24.4252 29.7683 23.5625 28.5393 22.9307 27.1689C21.3467 27.1015 20.1941 26.7051 19.4072 26.0332C18.5258 25.2803 18.218 24.2832 18.1768 23.3672C18.1362 22.4647 18.348 21.5917 18.5537 20.9688C18.6581 20.6526 18.7651 20.3886 18.8467 20.2021C18.8484 20.1982 18.8499 20.1943 18.8516 20.1904C18.6949 19.6856 18.5964 19.1388 18.5654 18.5381C17.7743 17.9802 17.2463 17.1898 16.8975 16.3516C16.4976 15.3906 16.3141 14.3248 16.2393 13.3574C16.164 12.3852 16.1962 11.4783 16.2461 10.8174C16.2711 10.4861 16.3005 10.2136 16.3242 10.0225C16.3361 9.92709 16.3469 9.85135 16.3545 9.79883C16.3583 9.77272 16.3611 9.75179 16.3633 9.7373C16.3644 9.73008 16.3655 9.72391 16.3662 9.71973C16.3665 9.71775 16.367 9.7161 16.3672 9.71484V9.71191C16.4262 9.34907 16.7398 9.08215 17.1074 9.08203C18.0825 9.08203 18.8431 8.72947 19.6172 8.13184C20.012 7.82697 20.403 7.46406 20.8271 7.05273C21.2423 6.65017 21.7001 6.19094 22.1885 5.74023C24.2063 3.87805 26.9271 2.00006 32.0576 2ZM9.00391 57.4922C8.17333 57.4922 7.5 58.1655 7.5 58.9961C7.5 59.8267 8.17333 60.5 9.00391 60.5H54.9961C55.8266 60.4999 56.5 59.8266 56.5 58.9961C56.5 58.1656 55.8266 57.4923 54.9961 57.4922H9.00391ZM11.9316 52.8125C11.9878 53.8825 12.1391 54.9464 12.3887 55.9922H15.4336C15.4124 55.9631 15.3925 55.9331 15.3721 55.9033C15.358 55.8828 15.3437 55.8626 15.3301 55.8418C15.2882 55.7781 15.2481 55.713 15.21 55.6465C15.1906 55.6128 15.1727 55.5783 15.1543 55.5439C15.1252 55.4897 15.097 55.4348 15.0703 55.3789C15.0612 55.3597 15.0518 55.3407 15.043 55.3213C14.965 55.151 14.8984 54.9736 14.8428 54.79C14.8386 54.7764 14.8341 54.7628 14.8301 54.749C14.8029 54.6561 14.7782 54.5617 14.7568 54.4658L14.6914 54.1064L14.5059 52.8125H11.9316ZM16.1016 38.2637C14.8958 38.2637 14.0713 39.2145 14.2422 40.4072L14.5322 42.4355L14.5332 42.4365L16.1758 53.8936C16.2722 54.5658 16.5517 55.0846 16.9355 55.4326C17.3165 55.7779 17.8407 55.9922 18.5 55.9922H45.1094C45.7686 55.9921 46.2929 55.7779 46.6738 55.4326C47.0577 55.0846 47.3372 54.5658 47.4336 53.8936L49.3672 40.4072C49.5381 39.2144 48.7135 38.2637 47.5078 38.2637H16.1016ZM49.1035 52.8125L48.918 54.1064C48.9025 54.2146 48.8818 54.3208 48.8594 54.4258C48.8524 54.4585 48.8446 54.491 48.8369 54.5234C48.8189 54.5997 48.7981 54.6747 48.7764 54.749C48.7678 54.7784 48.7601 54.8079 48.751 54.8369C48.7194 54.937 48.6858 55.0356 48.6475 55.1318C48.6402 55.15 48.6315 55.1675 48.624 55.1855C48.5919 55.2629 48.5569 55.3385 48.5205 55.4131C48.4998 55.4555 48.4791 55.4976 48.457 55.5391C48.4476 55.5567 48.4384 55.5743 48.4287 55.5918C48.3941 55.6543 48.3591 55.7162 48.3213 55.7764C48.3124 55.7905 48.303 55.8043 48.2939 55.8184C48.2622 55.8674 48.2292 55.9155 48.1953 55.9629C48.1885 55.9724 48.1827 55.9827 48.1758 55.9922H51.6113C51.8609 54.9463 52.0133 53.8824 52.0693 52.8125H49.1035ZM49.3184 51.3125H52.0771C51.9731 48.8321 51.3531 46.4765 50.3184 44.332L49.3184 51.3125ZM13.3828 44.9814C12.527 46.9487 12.0167 49.0802 11.9229 51.3125H14.291L13.3828 44.9814ZM27.7588 33.6768C25.0276 34.2261 22.5053 35.2939 20.3125 36.7637H28.7607C28.1359 36.0254 27.7588 35.07 27.7588 34.0234V33.6768ZM29.2598 34.0234C29.2598 34.5935 29.4317 35.1214 29.7266 35.5586C29.7757 35.6314 29.828 35.7019 29.8838 35.7695C29.9394 35.837 29.9978 35.9021 30.0596 35.9639C30.5549 36.4589 31.2403 36.7636 32 36.7637C32.2849 36.7636 32.5595 36.7204 32.8174 36.6406C32.989 36.5875 33.1535 36.5185 33.3086 36.4346C33.3866 36.3924 33.462 36.3462 33.5352 36.2969C33.6809 36.1986 33.8166 36.0867 33.9404 35.9629C34.0022 35.9011 34.0606 35.836 34.1162 35.7686C34.1718 35.7011 34.2244 35.6312 34.2734 35.5586C34.5684 35.1213 34.7402 34.5935 34.7402 34.0234V33.0811C33.8948 33.3428 33.017 33.4835 32.125 33.4902C31.1467 33.4975 30.1835 33.3422 29.2598 33.043V34.0234ZM36.2402 34.0234C36.2402 34.2005 36.2279 34.3747 36.207 34.5459C36.2035 34.5746 36.2004 34.6033 36.1963 34.6318C36.1937 34.6498 36.1913 34.6677 36.1885 34.6855C36.1814 34.731 36.1736 34.7763 36.165 34.8213C36.158 34.8583 36.1496 34.895 36.1416 34.9316C36.1358 34.9584 36.1303 34.9852 36.124 35.0117C36.0994 35.1155 36.0711 35.2177 36.0391 35.3184C36.0299 35.3469 36.0195 35.375 36.0098 35.4033C35.9436 35.5966 35.8646 35.7835 35.7725 35.9629C35.7622 35.9829 35.7518 36.0027 35.7412 36.0225C35.7222 36.058 35.7026 36.093 35.6826 36.1279C35.6722 36.1462 35.6621 36.1645 35.6514 36.1826C35.6287 36.2209 35.6049 36.2584 35.5811 36.2959C35.5699 36.3134 35.5592 36.3313 35.5479 36.3486C35.5289 36.3775 35.5098 36.4062 35.4902 36.4346C35.4767 36.4542 35.4631 36.4738 35.4492 36.4932C35.4225 36.5305 35.3951 36.5671 35.3672 36.6035C35.3577 36.6159 35.3485 36.6284 35.3389 36.6406C35.3063 36.6822 35.2733 36.7234 35.2393 36.7637H43.6875C41.4945 35.2937 38.9717 34.2261 36.2402 33.6768V34.0234ZM29.292 16.6689C28.2296 16.6542 26.9239 16.9382 25.2168 17.8662C25.1862 18.9476 25.0589 20.2865 24.7939 21.4561C24.6435 22.12 24.4405 22.7688 24.1631 23.292C24.0021 23.5956 23.7847 23.9121 23.4951 24.1533C23.9708 26.34 25.0352 28.2785 26.5176 29.6855C28.1145 31.2011 30.0942 32.0052 32.1133 31.9902C34.1325 31.9751 36.1045 31.1417 37.6855 29.6016C39.209 28.1173 40.2725 26.0656 40.6943 23.7695C39.4433 22.3338 38.868 20.3272 38.7188 18.2012C37.5567 18.6817 36.5303 18.7813 35.5654 18.6396C34.3687 18.4639 33.3051 17.9146 32.3594 17.4883C31.3795 17.0466 30.4356 16.6849 29.292 16.6689ZM19.8066 22.0527C19.7152 22.4507 19.657 22.8816 19.6758 23.2998C19.7043 23.932 19.9029 24.4842 20.3809 24.8926C20.7522 25.2096 21.3566 25.4959 22.334 25.6182C22.1886 25.1537 22.0684 24.678 21.9736 24.1934C21.1587 23.5364 20.3995 22.8555 19.8066 22.0527ZM44.4141 22.0625C43.9092 23.0791 43.1697 23.952 42.1396 24.21C42.046 24.6858 41.9268 25.1529 41.7842 25.6094C42.7412 25.473 43.3357 25.1572 43.707 24.8027C44.2025 24.3294 44.4186 23.6744 44.4512 22.9248C44.4636 22.6375 44.4474 22.3466 44.4141 22.0625ZM32.0576 3.5C27.3988 3.50006 25.0253 5.16384 23.2061 6.84277C22.7354 7.27716 22.3117 7.70266 21.8711 8.12988C21.4395 8.54835 20.9991 8.96034 20.5342 9.31934C19.7441 9.92931 18.8633 10.3992 17.7754 10.5381C17.7637 10.6545 17.7521 10.7859 17.7412 10.9297C17.6951 11.5406 17.6668 12.3675 17.7344 13.2412C17.8024 14.1198 17.9654 15.0139 18.2822 15.7754C18.5975 16.5329 19.0467 17.1174 19.668 17.4619C19.9064 17.5941 20.0547 17.8455 20.0547 18.1182C20.0547 19.3234 20.3625 20.2064 20.8711 20.9639C21.314 21.6233 21.9232 22.2094 22.6826 22.8369C22.7288 22.7738 22.7825 22.6934 22.8379 22.5889C23.0271 22.2318 23.1944 21.728 23.3311 21.125C23.603 19.9246 23.7202 18.484 23.7246 17.4209L23.7314 17.3213C23.7627 17.0941 23.897 16.8912 24.0986 16.7744C26.1607 15.5819 27.8416 15.1486 29.3125 15.1689C30.7769 15.1893 31.9543 15.6607 32.9756 16.1211C34.0309 16.5969 34.8498 17.0182 35.7832 17.1553C36.6595 17.2839 37.6805 17.1582 39.0518 16.3652C39.2836 16.2314 39.5698 16.2315 39.8018 16.3652C40.0338 16.4991 40.1767 16.7468 40.1768 17.0146C40.1768 19.403 40.6842 21.4433 41.793 22.7451C42.3062 22.5965 42.846 22.041 43.2969 20.8838C43.8077 19.5725 44.0736 17.7786 44.042 15.9668C44.0103 14.151 43.682 12.409 43.0801 11.1846C42.4779 9.95972 41.715 9.43233 40.8145 9.52344C40.5799 9.54704 40.3473 9.45946 40.1875 9.28613C40.0279 9.11291 39.9586 8.87428 40.001 8.64258C40.0018 8.63742 40.004 8.6275 40.0059 8.61328C40.0098 8.58315 40.0151 8.53365 40.0195 8.46777C40.0285 8.33536 40.0324 8.13878 40.0117 7.90039C39.9702 7.42238 39.8293 6.79152 39.4346 6.16309C38.6738 4.95221 36.8015 3.5 32.0576 3.5Z" clip-rule="evenodd"></path>
  <defs>
    <linearGradient id="paint0_linear_72_22764" x1="58" x2="-4.322" y1="2" y2="48.022" gradientUnits="userSpaceOnUse">
      <stop stop-color="red"></stop>
      <stop offset="1" stop-color="#4D00FF"></stop>
    </linearGradient>
    <linearGradient id="paint1_linear_72_22764" x1="58" x2="-4.322" y1="2" y2="48.022" gradientUnits="userSpaceOnUse">
      <stop stop-color="red"></stop>
      <stop offset="1" stop-color="#4D00FF"></stop>
    </linearGradient>
    <linearGradient id="paint2_linear_72_22764" x1="58" x2="-4.322" y1="2" y2="48.022" gradientUnits="userSpaceOnUse">
      <stop stop-color="red"></stop>
      <stop offset="1" stop-color="#4D00FF"></stop>
    </linearGradient>
  </defs>
</svg>
