<svg xmlns="http://www.w3.org/2000/svg" viewBox="0 0 417.52 358.04" id="art">
  <g id="Layer_2">
    <g id="Layer_1-2">
      <g id="Layer_3">
        <g id="Layer_2-2">
          <path d="M177.33,2.49C184.73.17,192.55.26,200.24.05c11.5,0,23-.34,34.53.71,22,3.31,43.92,9.48,63.08,21,12.29,8.31,24,19.4,28.13,34.12,1.31,8.64,1.61,18.23-3.26,25.9-7.31,13.65-24.29,18.09-31.86,31.51-3.69,6.34-4.34,14.62-.2,20.89,5.31,8.76,15.81,11.68,25.15,13.91-5.57,11.12-11.4,22.11-16.83,33.3-4.32.86-6.58,4.45-8.12,8.22-8.23-4.58-18.19-6.48-27.06-2.49-7.27,3.5-15.16,6.35-21.14,11.94-4.36,4.1-5.7,10.25-6.91,15.86-.45,5.63,2.17,11,4.1,16.13,1.84,5.46,7.19,8.33,11.75,11.19s12.27,1.56,13.32,8.31c-8.16,15.58-15,31.82-22.29,47.81-2.84,7.27-6.22,14.59-6.95,22.45-.05,2.89,3,3.41,5,4.5,2.32,2.08,3.45,6.33,7.2,6,2.92-.49,4.71-3.14,6.42-5.3,6.87-10,13.19-20.44,19.61-30.76,9.66-14.13,18.58-28.74,27.65-43.26,8-12.21,16-24.47,23-37.28,10.47-16.32,21.15-32.5,31-49.24,9.19,11.09,12.57,26,11.13,40.15-2.6,25.61-14.94,49.38-31.06,69.11-5.77,6.22-10.19,13.65-16.66,19.22-5.35,4.72-9.85,10.79-16.62,13.61,4.07-3.86,9.31-6.55,12.1-11.61-1.9.64-4.07.82-5.47,2.39A119.93,119.93,0,0,1,290.14,313c-4,2.55-6.81,6.72-11.19,8.72-7.12,3.21-13.06,8.57-20.52,11-5.23,2.15-11.48,2-15.8,6-5.34,4.52-12.56,5.34-19.08,7-7.39,1.43-14.28,4.84-21.82,5.43-14.35,1.35-28.78,1.7-43.17,2.07a144.31,144.31,0,0,1-34.51-6.39c-8.43-1.92-17-4-24.31-8.79-5.17-3.51-11.75-4-16.68-7.9C76.6,325.61,70.19,321,63.6,316.61c-8.08-7.2-17.67-13.19-23.25-22.75C34.93,283.2,24.7,275.77,20.5,264.38c-4.8-8.15-7.36-17.24-9.59-26.35A113.28,113.28,0,0,1,3.3,191.3c-.69-10.4,1.3-20.63,3.47-30.74,2-13.63,7.19-26.48,13.19-38.77,2.57-5.27,3-11.52,6.84-16.18,3.19-4.06,6.83-7.81,9.31-12.4,3.31-6,8.38-10.74,12.42-16.25,3.49-4.79,7.53-9.11,11.35-13.63l-3.08.06c5.07-6.5,12.43-10.49,18.36-16.06C105,24.65,140,7.74,177.33,2.49M238,30.38c-7.65,2.23-8,11.16-12,16.69-3.86,2.43-9.61.61-12.92,4.36-3.63,4.25.12,10.34-2.52,14.95-3.7,6.32-4,14.8,0,21.05,4.49,5.75,12.34,3.27,18.53,3.43,3.53,4.52,8,9.74,14.47,8.58,8.5-1,11.95-9.54,16.32-15.64,4.87-3.29,12.66-3.08,15.35-9.28,2.32-4.48-.79-8.87-2.54-12.89-.05-4.7,3.23-9.46.58-14-2.87-6.22-10.81-5-16.21-7-3.43-2.73-5.1-7.21-8.85-9.6A11.77,11.77,0,0,0,238,30.38M120,46.24c-3.74,5.11-4,11.77-3.8,17.87-3.24,1.62-7.07,2.4-9.79,4.85-.81,5.54-1.13,11.42.82,16.79a38.62,38.62,0,0,1,2.13,10.44c1.86,2.17,3.28,5,5.92,6.31a57.17,57.17,0,0,0,8.39.26c-.54.24-1.62.72-2.17.95,3,2.6,5.76,5.77,9.53,7.28,4.48,1.1,9.81.3,12.76-3.57,2.92-2.76,2.65-7.54,5.23-10.31,6.2-.63,13.86.56,18.4-4.78,3.34-5.52,2.36-12.86-.94-18.19-3.21-5.1-1-11.16-1.09-16.7.22-4.38-3.89-8.21-8.19-8-3.73-.55-6.82,1.83-10.11,3-4.06-.72-7-4.12-10.31-6.28-4.54-3.86-12.49-4.29-16.78.08M58.18,122.51c-4.33,4.32-11.68,3.83-15.18,9.25-3.27,4-.57,9-.11,13.43,1,3.53-1.86,6.31-3.2,9.28-3.34,5.91-3.24,14,1.17,19.32,5,5.36,12.89,5.72,19.75,5.93L62,180.79c2.15,5.9,9.72,10.21,15.67,7,5.6-2.42,3-12.28,9.89-12.76,5.17-.3,11.31-2.17,12.65-7.9,2-6.28-5.1-11.7-2.31-17.87,1.87-4.76,3.93-10.24,1.1-15.08-2.87-4.57-9-3.87-13.68-3.9-3.06-4.42-5.92-9.41-11-11.75-5.5-3-11.89.18-16.11,3.94M68,231.81a28.17,28.17,0,0,0-8.27,5.24c.08,3.07.09,6.13.08,9.22-6.11,2.26-12.39,7-12.43,14.15.31,6.78,7.07,9.86,12.21,12.72,1.12,6.2,3.89,12.21,9.47,15.58,5.63.67,11.31-.87,14.35-6,3.35-.24,6.88-.46,10,1.22,6.63,3.5,15.9.64,19.27-6.1,1.58-3.23,3.18-6.61,3.38-10.24.06-5.18-5.44-9.06-4.12-14.36,1.66-4.76,6.34-10,2.65-15-3.54-7-12.05-5.89-18.59-5.86-4.65-4.72-9.39-10.62-16.46-11.29-6-.05-10.15,5.33-11.5,10.69M156,262.25c-3.14,3.2-2.12,8.6-5.56,11.56-2.56,2.72-6.06,4.8-7.6,8.34-.35,2.79.24,5.6-.07,8.4-1.9,3.37-5.27,6.06-5.66,10.13-1.66,7.45,4.2,13.5,5.37,20.55,1.06,6.12,7.37,9.13,13,9.23,3.75-.54,7-4.36,11-2.68,4.94,1.5,10.19,5.58,15.29,2.24,6.18-2.14,8.31-8.69,10.84-14,5.1-1.27,11-1.27,15.18-4.84,2.82-3.71,5.49-8.51,4.13-13.33-.49-4.55-4.45-7.43-6.22-11.39-.95-4.84.48-9.88-.9-14.63a11.48,11.48,0,0,0-11.64-8.11c-3.69-.17-6.77,2.15-10.15,3.18-4.62-1.08-6.55-6.88-11.42-7.79-5.3-2.16-11.45-.52-15.61,3.17Z" style="fill:#f0ab6b"></path>
          <path d="M395.54,21.37h0c-1.91.31-3.49,1.54-5.16,2.36,1.19,3.27,3,6.22,4.57,9.33.9,3.51.28,7.18.23,10.77,2.93-.16,5.89-.53,8.83-.06,2.1,1.34,2.09,4.08,2.61,6.25.39-8.13-.61-16.83,3.66-24.19h0c2.65-2.55,5.51-5.08,7.24-8.39C410.19,14.84,402,17.8,395.54,21.37Zm5.25-.08a24.82,24.82,0,0,0,3-.62A24.82,24.82,0,0,1,400.79,21.29Zm6.14,7.61h0c.35-.81.71-1.62,1.05-2.44" style="fill:#f53926"></path>
          <path d="M369.19,44.85c4.71-9,12.86-15.55,21.19-21.12,1.19,3.27,3,6.22,4.57,9.33.9,3.51.28,7.18.23,10.77,2.93-.16,5.89-.53,8.83-.06,2.1,1.34,2.09,4.08,2.61,6.25-1.37,8.44-4.58,16.85-10.54,23.13a43.62,43.62,0,0,1-15.81,9.92A128.3,128.3,0,0,1,365,74.63c-2.74-9.88-.53-20.81,4.2-29.78Z" style="fill:#402a26"></path>
          <path d="M238,30.38a11.77,11.77,0,0,1,10.16.68c3.75,2.39,5.42,6.87,8.85,9.6,5.4,2,13.34.77,16.21,7,2.65,4.52-.63,9.28-.58,14,1.75,4,4.86,8.41,2.54,12.89-2.69,6.2-10.48,6-15.35,9.28-4.37,6.1-7.82,14.62-16.32,15.64-6.48,1.16-10.94-4.06-14.47-8.58-6.19-.16-14,2.32-18.53-3.43-4-6.25-3.69-14.73,0-21.05,2.64-4.61-1.11-10.7,2.52-14.95,3.31-3.75,9.06-1.93,12.92-4.36,4-5.53,4.39-14.46,12-16.69m-1.38,5.73c-5,3.9-4.74,12.4-11.35,14.46-3.4,1.63-9.19,1.18-9.92,5.9-.68,6.09-3,11.78-4.31,17.72-1.19,4.63,1.34,8.92,2.88,13.13,5.6,2.55,12.17-1,17.5,2.39,3.64,2.58,6.81,7.52,11.95,6.23,7-1.77,10.29-8.79,14.73-13.75,3.59-4.53,10.84-4,13.67-9.36,1.69-3.38-.75-7-1.62-10.22-1.71-3.56.07-7.3.48-10.92-1.86-5.69-8.33-6.72-13.28-8.23-4.66-1.08-6.41-6.11-10.11-8.56-3.43-1.09-7.79-1.41-10.62,1.21Z" style="fill:#f01e1d"></path>
          <path d="M236.66,36.11c2.83-2.62,7.19-2.3,10.62-1.21,3.7,2.45,5.45,7.48,10.11,8.56,4.95,1.51,11.42,2.54,13.28,8.23-.41,3.62-2.19,7.36-.48,10.92.87,3.27,3.31,6.84,1.62,10.22-2.83,5.33-10.08,4.83-13.67,9.36-4.44,5-7.76,12-14.73,13.75-5.14,1.29-8.31-3.65-11.95-6.23-5.33-3.36-11.9.16-17.5-2.39-1.54-4.21-4.07-8.5-2.88-13.13,1.31-5.94,3.63-11.63,4.31-17.72.73-4.72,6.52-4.27,9.92-5.9,6.61-2.06,6.38-10.56,11.35-14.46Z" style="fill:#f01e1d"></path>
          <path d="M120,46.24c4.29-4.37,12.24-3.94,16.78-.08,3.34,2.16,6.25,5.56,10.31,6.28,3.29-1.19,6.38-3.57,10.11-3,4.3-.19,8.41,3.64,8.19,8,.11,5.54-2.12,11.6,1.09,16.7,3.3,5.33,4.28,12.67.94,18.19-4.54,5.34-12.2,4.15-18.4,4.78-2.58,2.77-2.31,7.55-5.23,10.31-2.95,3.87-8.28,4.67-12.76,3.57-3.77-1.51-6.52-4.68-9.53-7.28.55-.23,1.63-.71,2.17-.95a57.17,57.17,0,0,1-8.39-.26c-2.64-1.34-4.06-4.14-5.92-6.31a38.62,38.62,0,0,0-2.13-10.44c-2-5.37-1.63-11.25-.82-16.79,2.72-2.45,6.55-3.23,9.79-4.85-.16-6.1.06-12.76,3.8-17.87Z" style="fill:#fde01f"></path>
          <path d="M56.8,63.39l3.08-.06C56.06,67.85,52,72.17,48.53,77c-4,5.51-9.11,10.23-12.42,16.25-2.48,4.59-6.12,8.34-9.31,12.4C23,110.27,22.53,116.52,20,121.79c-6,12.29-11.2,25.14-13.19,38.77C4.6,170.67,2.61,180.9,3.3,191.3A113.28,113.28,0,0,0,10.91,238c2.23,9.11,4.79,18.2,9.59,26.35,4.2,11.39,14.43,18.82,19.85,29.48,5.58,9.56,15.17,15.55,23.25,22.75,6.59,4.36,13,9,19.46,13.58,4.93,3.9,11.51,4.39,16.68,7.9,7.34,4.76,15.88,6.87,24.31,8.79a144.31,144.31,0,0,0,34.51,6.39c14.39-.37,28.82-.72,43.17-2.07,7.54-.59,14.43-4,21.82-5.43,6.52-1.7,13.74-2.52,19.08-7,4.32-4,10.57-3.86,15.8-6,7.46-2.46,13.4-7.82,20.52-11,4.38-2,7.17-6.17,11.19-8.72a119.93,119.93,0,0,0,18.79-14.58c1.4-1.57,3.57-1.75,5.47-2.39-2.79,5.06-8,7.75-12.1,11.61a160.59,160.59,0,0,1-25.81,18.5c-30.39,18-65.24,29.05-100.68,29.74-31.59,1.4-63.36-6.52-91.07-21.63-8-4.3-15.07-10.18-22.92-14.77-4.36-2.58-7.43-6.76-11.29-9.95-8.32-7.19-14.78-16.15-21.41-24.82C9.12,257-.5,222.42,0,188.46a178.41,178.41,0,0,1,35.52-100c2.65-3.55,4.57-7.65,7.81-10.73C48,73.12,51.73,67.59,56.8,63.39Z" style="fill:#f0ab6b"></path>
          <path d="M365,74.63a128.3,128.3,0,0,0,15.28,8.44c-6,14.67-11.64,29.46-17.92,44-2.4,5.51-4.14,11.37-7.4,16.48,0-.56.07-1.68.1-2.26-2.79-1.8-5.69-3.44-8.55-5.11-6.19-3.74-12.54-7.23-18.74-10.94,2.09-4.28,5.43-7.71,8.23-11.51,9.24-13.35,19.21-26.18,29-39.11Z" style="fill:#bfc4c9"></path>
          <path d="M58.18,122.51c4.22-3.76,10.61-6.92,16.11-3.94,5.09,2.34,7.95,7.33,11,11.75,4.65,0,10.81-.67,13.68,3.9,2.83,4.84.77,10.32-1.1,15.08-2.79,6.17,4.26,11.59,2.31,17.87-1.34,5.73-7.48,7.6-12.65,7.9-6.85.48-4.29,10.34-9.89,12.76-6,3.17-13.52-1.14-15.67-7,3.7,1.77,7.42,3.76,11.49,4.49C79,183.71,78,175.73,83,173.21c3.74-3.05,11.13-.38,12.56-6.07,1.41-3.39.08-7-.21-10.5-1-6.78,2.61-13.68.42-20.36-5.13-2.54-11.25-2.52-16.08-5.66-2.24-2.26-3.26-5.4-5.13-7.92C64.29,119.27,56,127.47,48,132.56c-4.24,3.73-1.12,9.88-2.63,14.62-2,7.34-8,15.51-2.29,22.72,2.65,8.12,13.06,3.43,17.49,9.82-6.86-.21-14.71-.57-19.75-5.93-4.41-5.36-4.51-13.41-1.17-19.32,1.34-3,4.18-5.75,3.2-9.28-.46-4.43-3.16-9.44.11-13.43,3.5-5.42,10.85-4.93,15.18-9.25Z" style="fill:#f67111"></path>
          <path d="M48,132.56c7.91-5.09,16.25-13.29,26.5-9.86,1.87,2.52,2.89,5.66,5.13,7.92,4.83,3.14,11,3.12,16.08,5.66,2.19,6.68-1.44,13.58-.42,20.36.29,3.47,1.62,7.11.21,10.5-1.43,5.69-8.82,3-12.56,6.07-5,2.52-4,10.5-9.51,12.07-4.07-.73-7.79-2.72-11.49-4.49l-1.37-1.07c-4.43-6.39-14.84-1.7-17.49-9.82-5.7-7.21.3-15.38,2.29-22.72,1.51-4.74-1.61-10.89,2.63-14.62Z" style="fill:#f67111"></path>
          <path d="M316.69,147.08c3.11-7.56,7.16-14.68,11.07-21.83,6.2,3.71,12.55,7.2,18.74,10.94-7.17,3.44-12.66-7.15-19.57-2.56-4.45,3.66-3.72,11.85-10.24,13.45Z" style="fill:#693417"></path>
          <path d="M326.93,133.63c6.91-4.59,12.4,6,19.57,2.56,2.86,1.67,5.76,3.31,8.55,5.11,0,.58-.07,1.7-.1,2.26-2.62,5-5.49,9.75-8.29,14.59C333,182,318.19,205.3,304.33,229.1c-6.26,11.32-13.91,21.82-20.08,33.21-5.71,10.37-12.6,20-18.9,30-7.35,11.61-14.67,23.46-24.66,33-2-1.09-5.06-1.61-5-4.5.73-7.86,4.11-15.18,6.95-22.45,7.32-16,14.13-32.23,22.29-47.81,2-3.93,3.82-7.91,5.69-11.87,6.68-14,13.52-27.92,20.75-41.64,2.58-5.2,5-10.47,7.62-15.65,5.43-11.19,11.26-22.18,16.83-33.3l.38-.82.5-.24c6.52-1.6,5.79-9.79,10.24-13.45Z" style="fill:#693417"></path>
          <path d="M304.33 229.1C318.19 205.3 333 182 346.66 158.15a63.61 63.61 0 0 1 8.85 7.37c-9.82 16.74-20.5 32.92-31 49.24-7 12.81-15 25.07-23 37.28-9.07 14.52-18 29.13-27.65 43.26-6.42 10.32-12.74 20.72-19.61 30.76-1.71 2.16-3.5 4.81-6.42 5.3-3.75.33-4.88-3.92-7.2-6 10-9.57 17.31-21.42 24.66-33 6.3-10 13.19-19.65 18.9-30 6.17-11.39 13.82-21.89 20.08-33.21ZM290.86 189.66c1.54-3.77 3.8-7.36 8.12-8.22-2.61 5.18-5 10.45-7.62 15.65 0-.76 0-2.3 0-3.08-8-4.28-17.42-6.25-26.29-4a33.11 33.11 0 0 0-23.61 19.14c-4.83 11.8 2.57 26.65 14.78 30.13 4.63 1.42 10.24 2.9 14.34-.59-1.87 4-3.73 7.94-5.69 11.87-1.05-6.75-8.84-5.31-13.32-8.31s-9.91-5.73-11.75-11.19c-1.93-5.15-4.55-10.5-4.1-16.13 1.21-5.61 2.55-11.76 6.91-15.86 6-5.59 13.87-8.44 21.14-11.94 8.87-4 18.83-2.09 27.06 2.49Z" style="fill:#f0ab6b"></path>
          <path d="M68,231.81c1.35-5.36,5.47-10.74,11.5-10.69,7.07.67,11.81,6.57,16.46,11.29,6.54,0,15-1.13,18.59,5.86,3.69,5-1,10.23-2.65,15-1.32,5.3,4.18,9.18,4.12,14.36-.2,3.63-1.8,7-3.38,10.24-3.37,6.74-12.64,9.6-19.27,6.1-3.08-1.68-6.61-1.46-10-1.22-3,5.11-8.72,6.65-14.35,6-5.58-3.37-8.35-9.38-9.47-15.58-5.14-2.86-11.9-5.94-12.21-12.72,0-7.1,6.32-11.89,12.43-14.15,0-3.09,0-6.15-.08-9.22A28.17,28.17,0,0,1,68,231.81Z" style="fill:#2fbe42"></path>
          <path d="M156,262.25c4.16-3.69,10.31-5.33,15.61-3.17,4.87.91,6.8,6.71,11.42,7.79,3.38-1,6.46-3.35,10.15-3.18a11.48,11.48,0,0,1,11.64,8.11c1.38,4.75,0,9.79.9,14.63,1.77,4,5.73,6.84,6.22,11.39,1.36,4.82-1.31,9.62-4.13,13.33-4.19,3.57-10.08,3.57-15.18,4.84-2.53,5.34-4.66,11.89-10.84,14-5.1,3.34-10.35-.74-15.29-2.24-4-1.68-7.23,2.14-11,2.68-5.67-.1-12-3.11-13-9.23-1.17-7.05-7-13.1-5.37-20.55.39-4.07,3.76-6.76,5.66-10.13.31-2.8-.28-5.61.07-8.4,1.54-3.54,5-5.62,7.6-8.34,3.44-3,2.42-8.36,5.56-11.56m6-.33c-3.43.36-5.34,3.87-6,6.88l-.44-1.35a31.64,31.64,0,0,1-5.32,10.73l-.49.17c-4.12,1.37-5.42,5.85-3.65,9.59.35,1.06,1,3.17,1.37,4.23-2.42,2.74-7.3,4.86-6.91,9-2.52-.48-2.61,5.18-.09,4.81l-.41,1.45c.44.65,1.35,1.95,1.8,2.61l.15.24c4.25,4.34,1.8,12.21,7.61,15.37,5.21,3.18,10.67-.74,16-1.23,4.61,1.82,9.11,5.95,14.4,3.83,6.75-1.95,8.15-9.53,9.68-15.4,3.65-.7,7.38-.91,11.07-1.47,6.41-1.28,10.3-8.86,8.17-14.92-1.49-3.88-5.12-6.42-6.83-10.15-.55-5,1.73-10.39-1-15a.88.88,0,0,1-.07-.13c-1.43-2.08-3.72-5.09-6.64-3.88.53-2.62-4.91-1.83-3.67.56l-2.48.58-.17.09c-1.71.69-2.88,3.68-5,2.83-3.53-1.93-6-5.24-9.32-7.44l.25-1.31L173,261.53l-1.28.24-2.13,0c-.48-2.81-7.23-2.75-7.52.19Z" style="fill:#f0ab6b"></path>
          <path d="M162,261.92c.29-2.94,7-3,7.52-.19l-7.52.19Z" style="fill:#f0ab6b"></path>
          <path d="M156,268.8c.69-3,2.6-6.52,6-6.88l7.52-.19,2.13,0,2.11,2.18c3.32,2.2,5.79,5.51,9.32,7.44,2.09.85,3.26-2.14,5-2.83l.17-.09,2.48-.58,3.67-.56c2.92-1.21,5.21,1.8,6.64,3.88a.88.88,0,0,0,.07.13c2.74,4.6.46,10,1,15,1.71,3.73,5.34,6.27,6.83,10.15,2.13,6.06-1.76,13.64-8.17,14.92-3.69.56-7.42.77-11.07,1.47-1.53,5.87-2.93,13.45-9.68,15.4-5.29,2.12-9.79-2-14.4-3.83-5.34.49-10.8,4.41-16,1.23-5.81-3.16-3.36-11-7.61-15.37l-.15-.24c-.45-.66-1.36-2-1.8-2.61l.41-1.45a9.34,9.34,0,0,0,.09-4.81c-.39-4.16,4.49-6.28,6.91-9-.34-1.06-1-3.17-1.37-4.23a44.31,44.31,0,0,1,3.65-9.59l.49-.17c1.68-.42,3.38-.82,5.08-1.23.26-2.72.5-5.43.68-8.15m7.27-3.58c-4.77,2.06-2.85,8.33-5.29,12-2.42,2.57-6.55,3.12-8.46,6.22-.28,3.64,0,7.3-.06,10.95-3,2.78-6.55,6.07-6,10.59,1,3.17,3.58,5.57,4.42,8.81,1.21,3.1,1.39,7.33,4.82,8.93,5.32.86,10.72-1.86,16-.2,3.73.89,7.73,4.1,11.49,1.44,4.26-3.41,3.64-10.28,8.35-13.38,4.93-3.63,13.81,0,16.35-7.06,2.78-5.47-2.11-9.76-4.87-13.91-2-6,.84-13.86-4.52-18.56-2.41-2.3-5,.65-7.35,1.43-4.3,2.68-9.53.1-13.13-2.61-3.24-2.71-7.2-6.68-11.79-4.66Z" style="fill:#1359e9"></path>
          <path d="M171.67,261.77l1.28-.24,1.08,1.11-.25,1.31-2.11-2.18Z" style="fill:#f0ab6b"></path>
          <path d="M163.26,265.22c4.59-2,8.55,1.95,11.79,4.66,3.6,2.71,8.83,5.29,13.13,2.61,2.35-.78,4.94-3.73,7.35-1.43,5.36,4.7,2.53,12.54,4.52,18.56,2.76,4.15,7.65,8.44,4.87,13.91-2.54,7-11.42,3.43-16.35,7.06-4.71,3.1-4.09,10-8.35,13.38-3.76,2.66-7.76-.55-11.49-1.44-5.28-1.66-10.68,1.06-16,.2-3.43-1.6-3.61-5.83-4.82-8.93-.84-3.24-3.44-5.64-4.42-8.81-.59-4.52,3-7.81,6-10.59,0-3.65-.22-7.31.06-10.95,1.91-3.1,6-3.65,8.46-6.22,2.44-3.68.52-10,5.29-12Z" style="fill:#1359e9"></path>
          <path d="M190.72 267.89c-1.24-2.39 4.2-3.18 3.67-.56l-3.67.56ZM155.55 267.45l.44 1.35c-.18 2.72-.42 5.43-.68 8.15-1.7.41-3.4.81-5.08 1.23a31.64 31.64 0 0 0 5.32-10.73Z" style="fill:#f0ab6b"></path>
          <path d="M188.07,268.56l.17-.09-.17.09Z" style="fill:#8e85a2"></path>
          <path d="M201,271.21a.88.88,0,0,0,.07.13.88.88,0,0,1-.07-.13Z" style="fill:#8e8091"></path>
          <path d="M146.09,287.94c-1.77-3.74-.47-8.22,3.65-9.59a44.31,44.31,0,0,0-3.65,9.59Z" style="fill:#1359e9"></path>
          <path d="M140.46,306c-2.52.37-2.43-5.29.09-4.81a9.34,9.34,0,0,1-.09,4.81" style="fill:#f0ab6b"></path>
          <path d="M141.85,310.06l.15.24-.15-.24Z" style="fill:#7477a4"></path>
          <path d="M61.82,319.45c7.85,4.59,14.88,10.47,22.92,14.77,27.71,15.11,59.48,23,91.07,21.63,35.44-.69,70.29-11.71,100.68-29.74-1.76,5.46-8.1,6.9-12.53,9.51-6.19,3.8-13.31,5.57-19.7,8.95-11.44,3.75-23.14,6.66-34.73,9.9-17.69,3.55-35.82,3.8-53.79,3.45-9-.57-18.08-1.13-26.48-4.6C110.91,349.72,93.69,342,77.41,333c-5.16-3-9-7.88-14.75-9.94-.22-.91-.63-2.71-.84-3.61Z" style="fill:#fdeed7"></path>
        </g>
      </g>
    </g>
  </g>
</svg>
