<svg xmlns="http://www.w3.org/2000/svg" id="email" viewBox="0 0 57.38 64.14">
  <g id="ICONS">
    <g>
      <g>
        <g>
          <path fill="#fff" d="m55.74,24.06c-.07.07-.15.15-.23.21l-22.22,20.99-1.23,1.15c-1.9,1.79-4.86,1.79-6.75,0l-1.19-1.13L1.9,24.27c-.08-.06-.16-.14-.23-.21l.23-.21L25.35,1.72c1.88-1.79,4.86-1.79,6.74,0l23.42,22.13.23.21Z"></path>
          <path fill="#231f20" d="m49.45,17.83c8.52,8.17,8.35,8.35-.29.31-2.91-2.71-6.12-5.71-9.6-8.95-1.74-1.62-3.54-3.31-5.4-5.04-.46-.43-.93-.87-1.41-1.31-.48-.43-.94-.92-1.42-1.26-.99-.7-2.29-.99-3.51-.73-.61.13-1.19.38-1.7.75-.49.36-.98.88-1.49,1.35-1,.95-2.02,1.92-3.04,2.9-2.05,1.95-4.16,3.95-6.3,5.98-4.17,3.95-8.5,8.05-12.94,12.25,4.49,4.26,8.88,8.42,13.1,12.42,2.13,2.03,4.22,4.01,6.26,5.96,1.02.97,2.03,1.93,3.03,2.88.51.47.97.98,1.48,1.31.52.35,1.11.58,1.72.68,1.22.21,2.51-.1,3.47-.83.94-.79,1.89-1.74,2.81-2.58,1.85-1.73,3.64-3.4,5.37-5.02,3.46-3.22,6.66-6.21,9.56-8.91,3.55-3.31,5.67-5.22,6.32-5.74h0c.31-.25.34-.23.05.07h0c-.55.61-2.59,2.62-6.09,5.98-2.86,2.74-6.02,5.77-9.43,9.04-1.71,1.63-3.48,3.33-5.31,5.08-.94.88-1.79,1.76-2.85,2.66-1.12.85-2.61,1.23-4.03,1-.71-.11-1.41-.38-2.03-.78-.63-.41-1.1-.93-1.6-1.39-1-.94-2.02-1.9-3.05-2.86-2.05-1.93-4.15-3.91-6.3-5.92-4.32-4.07-8.8-8.3-13.4-12.64h0c-.13-.12-.29-.26-.45-.41,4.7-4.42,9.27-8.74,13.69-12.89,2.15-2.02,4.27-4,6.33-5.94,1.03-.97,2.06-1.93,3.07-2.87.52-.47.97-.96,1.58-1.4.6-.42,1.29-.72,2.01-.86,1.43-.29,2.94.06,4.08.88.58.43,1.01.9,1.49,1.34.47.45.93.89,1.39,1.33,1.84,1.76,3.62,3.46,5.34,5.1,3.43,3.29,6.61,6.33,9.48,9.08Z"></path>
        </g>
        <g>
          <rect width="41.97" height="46.44" x="7.72" y="5.65" fill="#fff" rx="2.55" ry="2.55"></rect>
          <path fill="#231f20" d="m40.63,5.43c1.75.02,3.29.03,4.6.04.66,0,1.26.02,1.81.02.57,0,1.09.16,1.48.41.79.5,1.07,1.2,1.16,1.62.05.22.06.39.05.5,0,.11-.01.17-.02.17-.03,0-.03-.22-.15-.63-.12-.4-.42-1.02-1.16-1.45-.72-.48-1.84-.27-3.16-.29-1.32.01-2.85.02-4.6.04-4.73.03-9.95.06-15.6.09-2.82.01-5.75.03-8.78.04-1.51,0-3.05.01-4.61.02h-1.17c-.39,0-.69.04-1.02.17-.62.26-1.12.82-1.27,1.49-.04.16-.06.34-.06.51v.6s0,1.21,0,1.21c0,.81,0,1.63,0,2.45,0,1.65.01,3.31.02,4.99,0,3.37.02,6.81.02,10.32,0,7.02.01,14.31.02,21.77,0,.77.45,1.51,1.14,1.86.35.18.69.24,1.13.23h1.38c1.84,0,3.67,0,5.49,0,3.63,0,7.21.01,10.72.02,3.51,0,6.95.02,10.32.02,1.68,0,3.35.01,4.99.02.82,0,1.64,0,2.45,0h1.21c.38.01.7-.04,1.01-.19.63-.28,1.09-.87,1.23-1.53.07-.31.04-.7.05-1.1v-1.17c.01-1.56.02-3.1.02-4.61.01-3.03.03-5.96.04-8.78.03-5.65.06-10.88.09-15.6.09-14.03.34-14.03.43,0,.03,4.73.06,9.95.09,15.6.01,2.82.03,5.75.04,8.78,0,1.51.01,3.05.02,4.61v1.17c0,.38.04.79-.05,1.25-.18.89-.8,1.69-1.64,2.07-.41.2-.9.28-1.33.27h-1.21c-.81,0-1.63,0-2.45.01-1.65,0-3.31,0-4.99.02-3.37,0-6.81.02-10.32.02-3.51,0-7.09.01-10.72.02-1.82,0-3.65,0-5.49,0h-1.38c-.48.02-1.08-.07-1.55-.33-.98-.49-1.64-1.56-1.64-2.67,0-7.47.01-14.75.02-21.77,0-3.51.02-6.95.02-10.32,0-1.68.01-3.35.02-4.99,0-.82,0-1.64,0-2.45v-1.21s0-.61,0-.61c0-.23.03-.46.09-.69.22-.9.89-1.66,1.73-2,.41-.17.91-.23,1.3-.21h1.17c1.56.01,3.1.02,4.61.02,3.03.01,5.96.03,8.78.04,5.65.03,10.88.06,15.6.09Z"></path>
        </g>
        <g>
          <path fill="#fff" d="m56.96,27.02v32.5c0,1.25-.55,2.37-1.42,3.13l-22.24-17.38,22.22-20.99c.08-.06.16-.14.23-.21.74.76,1.21,1.79,1.21,2.95Z"></path>
          <path fill="#231f20" d="m53.61,25.78c.66-.6,1.24-1.14,1.74-1.6.08-.08.16-.12.23-.17l.11-.07s.07-.05.11,0c.14.08.26.24.37.38.18.24.3.45.41.66.21.42.32.81.37,1.12.1.62.03.93,0,.93-.04,0-.04-.31-.2-.89-.08-.29-.21-.64-.43-1.02-.11-.19-.25-.4-.4-.58-.06-.07-.12-.13-.18-.19-.06-.02-.13.11-.2.15-.47.46-1.03,1-1.65,1.61-5.24,5.03-12.01,11.53-19.95,19.15,3.44,2.67,7.4,5.76,11.49,8.94,3.35,2.63,6.63,5.2,9.78,7.67l.28.22.02-.02s.14-.15.19-.22c.28-.35.49-.74.63-1.16.14-.42.2-.84.19-1.31,0-.49,0-.97,0-1.45.01-1.92.02-3.8.03-5.63.06-7.32.12-13.86.17-19.25.09-8.01.34-8.01.43,0,.05,5.39.1,11.93.17,19.25.01,1.83.02,3.71.03,5.63,0,.48,0,.96,0,1.45.01.5-.05,1.07-.22,1.58-.17.52-.43,1-.77,1.43-.1.12-.15.18-.3.34-.16.17-.34.33-.52.49-.19-.09-.38-.27-.57-.41l-.32-.25c-3.16-2.46-6.44-5.02-9.81-7.64-4.36-3.42-8.58-6.73-12.24-9.6,8.34-7.77,15.46-14.39,20.97-19.52Z"></path>
        </g>
        <g>
          <path fill="#fff" d="m24.12,45.29L1.88,62.65c-.87-.76-1.42-1.88-1.42-3.13V27.02c0-1.16.47-2.19,1.21-2.95.07.07.15.15.23.21l22.22,21.01Z"></path>
          <path fill="#231f20" d="m19.91,41.01c5.76,5.57,5.58,5.75-.29.31-3.95-3.67-8.74-8.12-14.1-13.11-1.24-1.15-2.5-2.34-3.8-3.55.07-.1-.31.39-.47.77-.19.4-.3.83-.33,1.27-.03.91,0,1.95,0,2.94,0,4.01.01,8.16.02,12.43,0,4.26-.01,8.42-.02,12.43,0,1,0,1.99-.01,2.98,0,.49,0,.98,0,1.47,0,.5-.02.94.07,1.36.09.42.25.83.47,1.2.11.18.24.36.38.52l.09.1s.02.02.03,0c.69-.53,1.37-1.06,2.05-1.58,5.81-4.45,11-8.43,15.28-11.72,6.37-4.86,6.52-4.66.26.34-4.22,3.36-9.34,7.43-15.08,11.98-.77.61-1.55,1.22-2.34,1.85-.09.06-.17.14-.26.18l-.24-.22c-.14-.14-.35-.33-.4-.4-.17-.19-.33-.4-.47-.62-.28-.44-.48-.93-.59-1.45-.12-.52-.1-1.06-.11-1.53,0-.49,0-.97,0-1.47,0-.98,0-1.97-.01-2.98,0-4.01-.01-8.16-.02-12.43,0-4.26.01-8.42.02-12.43.15-1.98-.61-4.01,1.62-6.14.81.71.98.9,1.36,1.26.34.33.68.65,1.02.98.68.65,1.35,1.29,2.01,1.92,5.28,5.08,9.99,9.61,13.87,13.35Z"></path>
        </g>
        <g>
          <path fill="#fff" d="m55.53,62.65c-.73.65-1.7,1.04-2.75,1.04H4.64c-1.06,0-2.02-.39-2.75-1.04l22.24-17.36,1.19,1.13c1.9,1.79,4.86,1.79,6.75,0l1.23-1.15,22.24,17.38Z"></path>
          <path fill="#231f20" d="m49.83,57.92c7.72,6.15,7.57,6.35-.26.34-4.53-3.49-9.9-7.62-16.25-12.51-.21.2-.43.41-.65.62-.29.27-.62.6-1,.86-.75.53-1.69.86-2.66.91-.97.06-1.99-.15-2.89-.65-.45-.23-.87-.58-1.22-.91-.26-.25-.53-.5-.8-.75-5.05,3.96-10.81,8.48-16.79,13.16-1.04.81-2.07,1.61-3.09,2.41-.51.4-1.02.8-1.53,1.19l-.06.04h0c-.1-.06.24.17.49.27.53.23,1.07.34,1.67.32.63,0,1.27,0,1.89,0,1.26,0,2.5,0,3.74,0,4.94.02,9.7.04,14.21.06,9.03.06,17.09.12,23.74.17,1.23.02,2.31.03,3.24.04.93.01,1.69.07,2.27-.1,1.16-.32,1.61-.82,1.64-.76.01.01-.08.14-.33.34-.24.2-.64.46-1.25.66-.61.22-1.42.2-2.33.21-.93.01-2.01.02-3.24.04-6.65.05-14.71.1-23.74.17-4.51.02-9.27.04-14.21.06-1.24,0-2.48,0-3.74,0-.63,0-1.26,0-1.89,0-.67.02-1.4-.1-2.04-.4-.33-.16-.57-.26-1.13-.72l-.35-.3s-.07-.05-.08-.07l.08-.07.17-.15c.19-.18.55-.44.68-.55.51-.4,1.02-.79,1.53-1.19,1.02-.8,2.05-1.6,3.09-2.41,6.2-4.82,12.17-9.46,17.41-13.53.44.42.87.83,1.31,1.24.34.33.66.59,1.05.8.75.43,1.62.62,2.45.57.83-.04,1.63-.31,2.28-.76.34-.21.61-.48.92-.77.38-.35.75-.7,1.12-1.04,6.48,5.14,11.94,9.47,16.56,13.13Z"></path>
        </g>
      </g>
      <g>
        <path fill="#fff" d="m39.57,19.03c0,.66-.05,1.34-.14,2.01s-.24,1.33-.44,1.95-.47,1.21-.78,1.75-.7,1.02-1.15,1.42-.97.72-1.56.95-1.26.35-2.01.35c-.45,0-.85-.04-1.21-.13s-.68-.21-.96-.38-.5-.38-.68-.63-.31-.54-.4-.87c-.35.36-.7.67-1.04.92s-.68.46-1.01.62-.66.28-.99.35-.66.11-1,.11c-.43,0-.81-.05-1.13-.16s-.61-.25-.85-.43-.44-.39-.6-.63-.29-.51-.39-.8-.17-.6-.21-.91-.06-.64-.06-.97c0-.43.03-.91.1-1.43s.18-1.07.34-1.62.37-1.08.63-1.6.59-.97.98-1.38.85-.73,1.37-.98,1.13-.37,1.81-.37c.31,0,.6.03.86.1s.52.16.76.3.48.31.72.53.48.49.73.81l.23-1.05c.04-.16.15-.29.33-.37s.52-.12.99-.12c.24,0,.43.01.59.03s.28.05.38.1.15.09.18.15.04.13.03.21l-1.17,6.1c-.13.67-.11,1.17.06,1.48s.5.47.99.47c.32,0,.61-.09.87-.26s.49-.41.69-.7.36-.64.5-1.02.25-.79.33-1.21.15-.85.19-1.28.06-.85.06-1.25c0-.73-.1-1.42-.3-2.07s-.55-1.22-1.06-1.72-1.19-.89-2.05-1.17-1.95-.43-3.28-.43c-.89,0-1.7.09-2.44.27s-1.39.42-1.97.74-1.1.68-1.56,1.11-.85.89-1.19,1.4-.62,1.04-.85,1.61-.42,1.14-.55,1.73-.24,1.16-.3,1.75-.1,1.15-.1,1.69c0,.99.11,1.88.33,2.66s.6,1.45,1.13,1.99,1.25.96,2.15,1.25,2.02.43,3.37.43c.7,0,1.34-.04,1.92-.12s1.08-.17,1.52-.26.78-.18,1.06-.26.46-.12.56-.12c.06,0,.12.02.16.05s.08.09.11.18.05.21.06.37.02.35.02.59c0,.2,0,.37-.01.51s-.03.25-.05.35-.05.18-.09.25-.08.13-.14.18-.23.13-.51.23-.67.2-1.15.29-1.04.18-1.68.25-1.34.11-2.11.11c-1.73,0-3.2-.2-4.42-.59s-2.22-.97-3-1.72-1.35-1.66-1.71-2.73-.54-2.27-.54-3.61c0-.75.05-1.51.16-2.28s.27-1.54.48-2.29.5-1.49.85-2.2.77-1.39,1.25-2.03,1.04-1.22,1.67-1.75,1.34-.99,2.13-1.37,1.66-.68,2.61-.89,2-.31,3.13-.31c1.67,0,3.09.19,4.28.56s2.16.9,2.93,1.58,1.33,1.5,1.69,2.46.54,2.03.54,3.2Zm-9.17,1.21c-.27-.5-.56-.88-.85-1.13s-.63-.38-1-.38c-.32,0-.6.08-.85.23s-.47.35-.66.6-.35.53-.48.85-.24.63-.33.96-.15.65-.18.96-.05.59-.05.83c0,.55.1.98.3,1.3s.54.48,1.01.48c.17,0,.35-.03.54-.09s.38-.15.59-.29.42-.3.66-.52.49-.47.77-.77l.56-3.02Z"></path>
        <g>
          <path fill="none" d="m39.57,19.03c0,.66-.05,1.34-.14,2.01s-.24,1.33-.44,1.95-.47,1.21-.78,1.75-.7,1.02-1.15,1.42-.97.72-1.56.95-1.26.35-2.01.35c-.45,0-.85-.04-1.21-.13s-.68-.21-.96-.38-.5-.38-.68-.63-.31-.54-.4-.87c-.35.36-.7.67-1.04.92s-.68.46-1.01.62-.66.28-.99.35-.66.11-1,.11c-.43,0-.81-.05-1.13-.16s-.61-.25-.85-.43-.44-.39-.6-.63-.29-.51-.39-.8-.17-.6-.21-.91-.06-.64-.06-.97c0-.43.03-.91.1-1.43s.18-1.07.34-1.62.37-1.08.63-1.6.59-.97.98-1.38.85-.73,1.37-.98,1.13-.37,1.81-.37c.31,0,.6.03.86.1s.52.16.76.3.48.31.72.53.48.49.73.81l.23-1.05c.04-.16.15-.29.33-.37s.52-.12.99-.12c.24,0,.43.01.59.03s.28.05.38.1.15.09.18.15.04.13.03.21l-1.17,6.1c-.13.67-.11,1.17.06,1.48s.5.47.99.47c.32,0,.61-.09.87-.26s.49-.41.69-.7.36-.64.5-1.02.25-.79.33-1.21.15-.85.19-1.28.06-.85.06-1.25c0-.73-.1-1.42-.3-2.07s-.55-1.22-1.06-1.72-1.19-.89-2.05-1.17-1.95-.43-3.28-.43c-.89,0-1.7.09-2.44.27s-1.39.42-1.97.74-1.1.68-1.56,1.11-.85.89-1.19,1.4-.62,1.04-.85,1.61-.42,1.14-.55,1.73-.24,1.16-.3,1.75-.1,1.15-.1,1.69c0,.99.11,1.88.33,2.66s.6,1.45,1.13,1.99,1.25.96,2.15,1.25,2.02.43,3.37.43c.7,0,1.34-.04,1.92-.12s1.08-.17,1.52-.26.78-.18,1.06-.26.46-.12.56-.12c.06,0,.12.02.16.05s.08.09.11.18.05.21.06.37.02.35.02.59c0,.2,0,.37-.01.51s-.03.25-.05.35-.05.18-.09.25-.08.13-.14.18-.23.13-.51.23-.67.2-1.15.29-1.04.18-1.68.25-1.34.11-2.11.11c-1.73,0-3.2-.2-4.42-.59s-2.22-.97-3-1.72-1.35-1.66-1.71-2.73-.54-2.27-.54-3.61c0-.75.05-1.51.16-2.28s.27-1.54.48-2.29.5-1.49.85-2.2.77-1.39,1.25-2.03,1.04-1.22,1.67-1.75,1.34-.99,2.13-1.37,1.66-.68,2.61-.89,2-.31,3.13-.31c1.67,0,3.09.19,4.28.56s2.16.9,2.93,1.58,1.33,1.5,1.69,2.46.54,2.03.54,3.2Zm-9.17,1.21c-.27-.5-.56-.88-.85-1.13s-.63-.38-1-.38c-.32,0-.6.08-.85.23s-.47.35-.66.6-.35.53-.48.85-.24.63-.33.96-.15.65-.18.96-.05.59-.05.83c0,.55.1.98.3,1.3s.54.48,1.01.48c.17,0,.35-.03.54-.09s.38-.15.59-.29.42-.3.66-.52.49-.47.77-.77l.56-3.02Z"></path>
          <path fill="#231f20" d="m30,21.21c.34-1.33.58-1.28.42.08-.06.46-.12.97-.19,1.51-.02.15-.04.3-.06.45-.01.06,0,.13-.04.18l-.12.13-.16.18c-.21.22-.4.46-.65.68-.48.44-1.13.93-2.02.94-.4,0-.97-.18-1.25-.64-.26-.4-.35-.83-.39-1.24-.04-.42.03-.78.05-1.16.06-.37.14-.74.22-1.09.13-.34.25-.67.37-1,.15-.33.34-.63.56-.9.22-.28.5-.51.8-.67.32-.17.67-.24.99-.23.68,0,1.21.44,1.48.83.43.59.47.96.41.99-.08.05-.29-.24-.73-.71-.56-.7-1.72-.71-2.34.25-.61.91-.93,2.32-.88,3.63.02.31.1.61.22.81.1.16.27.24.54.27.51.01,1.02-.28,1.48-.64.24-.17.45-.4.66-.58l.15-.13s.04-.03.04-.05c.03-.13.06-.26.09-.38.13-.54.25-1.03.37-1.48Z"></path>
          <path fill="#231f20" d="m34.45,11.56c1.57.49,2.83,1.32,3.62,2.29.8.96,1.15,1.97,1.34,2.75.18.8.21,1.41.21,1.82,0,.41-.03.61-.05.61-.07,0,0-.82-.4-2.36-.22-.76-.58-1.7-1.36-2.59-.77-.89-1.96-1.65-3.48-2.1-1.02-.31-2.11-.45-3.24-.5-1.13-.04-2.29,0-3.44.2-2.31.39-4.62,1.49-6.28,3.42-.83.95-1.51,2.06-2.02,3.27-.54,1.2-.74,2.54-1,3.87-.04.68-.09,1.36-.13,2.05,0,.69.05,1.38.16,2.06.23,1.37.73,2.7,1.67,3.73.92,1.04,2.24,1.71,3.64,2.08,1.41.36,2.92.48,4.43.39.76-.05,1.52-.06,2.27-.2.37-.07.77-.09,1.12-.2l.54-.14.27-.07c.06-.03.12-.06.19-.08.05-.03.16-.04.17-.07.02-.03.05-.05.06-.12.05-.1.06-.28.07-.45.01-.35.01-.8-.04-1.07,0-.03,0-.03-.02-.03,0,0-.19.05-.37.09-.4.09-.81.21-1.21.29l-1.22.21c-.41.06-.83.06-1.25.1-.84.08-1.67.07-2.52-.02-.84-.09-1.71-.27-2.52-.62-.81-.34-1.59-.91-2.13-1.66-.55-.74-.83-1.66-.97-2.51-.14-.87-.19-1.75-.11-2.62,0-.87.17-1.74.33-2.6.07-.43.25-.85.37-1.27.14-.42.26-.85.47-1.26.69-1.46,1.78-2.77,3.17-3.61,1.39-.85,3-1.23,4.56-1.28,1.54-.03,3.13.06,4.6.72.72.32,1.42.81,1.92,1.46.52.63.81,1.44.95,2.19.16.77.15,1.55.09,2.28,0,.37-.06.74-.12,1.11-.06.37-.1.74-.22,1.1-.19.72-.39,1.46-.88,2.12-.25.33-.55.62-.96.82-.41.2-.87.23-1.3.15-.22-.04-.47-.14-.67-.32-.2-.18-.33-.43-.38-.65-.11-.45-.07-.84-.02-1.21.13-.69.27-1.37.4-2.05.26-1.35.53-2.69.78-4,.04-.23.03-.14.03-.19-.02-.03,0-.01-.15-.05-.26-.04-.58-.06-.89-.05-.31,0-.61.07-.66.14-.01.02-.01,0-.02.05l-.09.41-.18.81c-.01.95-.5.04-.84-.26-.17-.18-.38-.43-.52-.56l-.35-.26c-.44-.41-1.02-.49-1.59-.54-1.19-.09-2.31.42-3.1,1.26-.79.84-1.29,1.94-1.56,3.06-.27,1.12-.45,2.27-.35,3.37,0,.28.09.53.14.79.03.27.16.5.27.73.18.49.56.84.99,1.07.88.48,2.01.37,2.93.09.47-.16.88-.48,1.31-.72.21-.14.38-.32.57-.48.23-.19.59-.53.85-.72.08.26.15.54.24.76.11.23.14.28.23.41.16.22.35.4.57.53.43.28.92.4,1.39.46.94.11,1.81.02,2.57-.26,1.47-.54,2.39-1.67,2.92-2.71.55-1.05.8-2.03.96-2.81.21-1.58.26-2.39.32-2.39.02,0,.03.2.02.61-.02.4,0,1.01-.1,1.82-.12.8-.35,1.81-.89,2.92-.52,1.1-1.49,2.35-3.08,2.95-.84.32-1.76.42-2.78.32-.51-.06-1.06-.19-1.59-.52-.26-.16-.51-.38-.71-.65-.09-.11-.21-.33-.23-.38-.03-.07-.06-.13-.08-.2-.03-.02-.08.06-.12.09l-.16.14c-.2.17-.38.37-.6.52-.46.27-.89.61-1.43.8-1.06.33-2.28.49-3.39-.08-.54-.28-1.03-.74-1.26-1.31-.14-.27-.29-.55-.33-.85-.06-.3-.17-.59-.17-.89-.12-1.2.06-2.39.33-3.59.28-1.19.79-2.39,1.69-3.37.45-.49,1-.88,1.62-1.16.64-.28,1.32-.39,2-.35.35.05.7.04,1.04.15.35.1.67.28.94.5l.43.32c.1.08.1.1.15.15.07.07.18.25.18.06l.03-.15.02-.08c.02-.11.1-.28.19-.38.19-.22.44-.3.64-.34.2-.04.38-.06.56-.06.35-.01.7,0,1.1.06.17.04.56.11.69.39.07.13.1.28.09.43-.02.18-.05.26-.06.33-.25,1.32-.5,2.66-.76,4.01-.13.67-.25,1.35-.38,2.02-.05.31-.06.64,0,.87.07.23.16.3.41.36.55.12,1.04-.15,1.4-.65.38-.49.57-1.15.73-1.82.11-.32.15-.67.2-1.01.05-.34.11-.69.11-1.04.05-.7.05-1.39-.09-2.06-.21-1.36-1.09-2.46-2.37-3-1.26-.57-2.74-.67-4.2-.63-1.44.05-2.89.4-4.11,1.15-1.23.75-2.2,1.9-2.82,3.23-.19.36-.3.76-.42,1.15-.11.4-.28.77-.35,1.18-.14.81-.3,1.62-.31,2.45-.08.82-.03,1.64.1,2.43.13.79.36,1.53.81,2.13.87,1.24,2.46,1.77,4.01,1.93.79.09,1.59.1,2.37.03.39-.03.78-.03,1.18-.09l1.17-.2c.39-.07.76-.18,1.14-.26.21-.05.43-.11.8-.15.37,0,.65.35.67.72.09.52.06.88.05,1.32,0,.1-.02.22-.03.34-.01.11-.03.24-.09.37-.03.13-.13.27-.24.39-.1.12-.22.14-.34.21l-.35.16-.3.08-.6.15c-.4.12-.79.14-1.19.21-.79.15-1.58.16-2.37.2-1.57.08-3.15-.05-4.67-.45-1.5-.41-2.96-1.16-4-2.35-1.06-1.17-1.6-2.67-1.82-4.12-.11-.73-.17-1.46-.15-2.18.05-.72.11-1.43.16-2.14.28-1.39.5-2.78,1.09-4.04.55-1.26,1.27-2.43,2.16-3.42,1.77-2.02,4.25-3.16,6.65-3.53,1.21-.2,2.4-.22,3.55-.16,1.15.06,2.28.23,3.34.56Z"></path>
        </g>
      </g>
    </g>
  </g>
</svg>
