<svg xmlns="http://www.w3.org/2000/svg" viewBox="0 0 96 96" id="innovation">
  <circle cx="48" cy="88.95" r="6.05" fill="#4e5583"></circle>
  <path fill="#ffb050" d="M74.43,40.61A26.39,26.39,0,0,1,61.65,63.24a4.1,4.1,0,0,0-2,3.49v3.53H36.33V66.74a4.12,4.12,0,0,0-2-3.51A26.43,26.43,0,1,1,74.43,40.61Z"></path>
  <path fill="#ffdd78" d="M74.43,40.61A26.39,26.39,0,0,1,61.65,63.24a4.1,4.1,0,0,0-2,3.49v3.53H49.07V66.74a4.11,4.11,0,0,0-2-3.51A26.45,26.45,0,0,1,34.56,36.89C37.85,13.13,74.43,14,74.43,40.61Z"></path>
  <path fill="#4e5583" d="M59.67,76.72v7.8A4.43,4.43,0,0,1,55.23,89H40.77a4.43,4.43,0,0,1-4.44-4.43v-7.8Z"></path>
  <path fill="#5d78a1" d="M59.67,76.72v7.8A4.43,4.43,0,0,1,55.23,89H47.58a4.43,4.43,0,0,1-4.44-4.43v-7.8Z"></path>
  <path fill="#7696c9" d="M47.58,85a.44.44,0,0,1-.44-.44V81.94a1.23,1.23,0,0,1,1.23-1.22h6.07a1.23,1.23,0,0,1,1.23,1.22v2.58a.43.43,0,0,1-.43.43Z"></path>
  <rect width="23.34" height="6.47" x="36.33" y="70.26" fill="#b8b6dc"></rect>
  <rect width="14.29" height="6.47" x="45.38" y="70.26" fill="#dbd9dc"></rect>
  <rect width="14.29" height="1.99" x="45.38" y="70.26" fill="#ffedff"></rect>
  <path fill="#5d78a1" d="M64.35,36.4H61.8a1.28,1.28,0,0,1-1.2-.84,11.89,11.89,0,0,0-.53-1.28,1.3,1.3,0,0,1,.25-1.45L62.13,31a1.28,1.28,0,0,0,0-1.81l-3.32-3.33a1.29,1.29,0,0,0-1.82,0l-1.8,1.82a1.26,1.26,0,0,1-1.45.24c-.4-.19-.83-.37-1.26-.53a1.25,1.25,0,0,1-.85-1.2V23.67a1.28,1.28,0,0,0-1.29-1.27H45.66a1.28,1.28,0,0,0-1.29,1.27v2.55a1.25,1.25,0,0,1-.85,1.2c-.43.16-.86.34-1.26.53a1.26,1.26,0,0,1-1.45-.24L39,25.89a1.29,1.29,0,0,0-1.82,0l-3.32,3.33a1.28,1.28,0,0,0,0,1.81l1.81,1.8a1.3,1.3,0,0,1,.25,1.45,11.89,11.89,0,0,0-.53,1.28,1.28,1.28,0,0,1-1.2.84H31.65a1.28,1.28,0,0,0-1.28,1.28v4.69a1.28,1.28,0,0,0,1.28,1.28H34.2a1.29,1.29,0,0,1,1.2.85,10.8,10.8,0,0,0,.53,1.26,1.32,1.32,0,0,1-.25,1.46L33.87,49a1.27,1.27,0,0,0,0,1.8l3.32,3.32a1.27,1.27,0,0,0,1.82,0l1.8-1.8a1.28,1.28,0,0,1,1.45-.25,12.8,12.8,0,0,0,1.26.52,1.26,1.26,0,0,1,.85,1.2v2.55a1.29,1.29,0,0,0,1.29,1.29h4.68a1.29,1.29,0,0,0,1.29-1.29V53.82a1.26,1.26,0,0,1,.85-1.2,12.8,12.8,0,0,0,1.26-.52,1.28,1.28,0,0,1,1.45.25l1.8,1.8a1.27,1.27,0,0,0,1.82,0l3.32-3.32a1.27,1.27,0,0,0,0-1.8l-1.81-1.81a1.32,1.32,0,0,1-.25-1.46,10.8,10.8,0,0,0,.53-1.26,1.29,1.29,0,0,1,1.2-.85h2.55a1.28,1.28,0,0,0,1.28-1.28V37.68A1.28,1.28,0,0,0,64.35,36.4ZM48.22,46.9h-.44A6.74,6.74,0,0,1,41.38,38,6.58,6.58,0,0,1,48,33.46H48A6.58,6.58,0,0,1,54.62,38,6.74,6.74,0,0,1,48.22,46.9Z"></path>
  <path fill="#4e5a8d" d="M46.37 55.66V53.82a3.27 3.27 0 00-2.18-3.08A6.46 6.46 0 0041.71 50c-1.65 0-2.39 1-3.61 2.25l-2.3-2.3 1.29-1.29a3.31 3.31 0 00.65-3.73 9.52 9.52 0 01-.45-1.06 3.3 3.3 0 00-3.09-2.2H32.37V38.4H34.2a3.28 3.28 0 003.08-2.16 10.1 10.1 0 01.46-1.11 3.28 3.28 0 00-.62-3.69l-1.33-1.32 2.31-2.31 1.29 1.31a3.27 3.27 0 003.73.64 11.63 11.63 0 011.1-.46 3.24 3.24 0 002.15-3.08V24.4h3.26v1.82a3.26 3.26 0 002.21 3.1 6.3 6.3 0 002.45.76c1.66 0 2.4-1 3.61-2.27l2.31 2.31-1.3 1.3a3.29 3.29 0 00-.64 3.74 8.42 8.42 0 01.43 1 3.3 3.3 0 003.1 2.21h1.83v3.25H61.8a3.29 3.29 0 00-3.08 2.16 9.89 9.89 0 01-.45 1.08 3.29 3.29 0 00.59 3.7l1.34 1.34-2.3 2.3-1.3-1.29a3.25 3.25 0 00-3.72-.64c-.31.14-.68.3-1.05.43a3.28 3.28 0 00-2.2 3.09v1.84zm1.31-24.21c-7.41 0-11 8.39-6.93 13.91a8.77 8.77 0 007 3.54c6.78 0 10.45-5.94 8.76-11.45a8.56 8.56 0 00-8.59-6zM70.37 18.8a1 1 0 01-.71-1.71L75 11.77a1 1 0 011.41 1.41l-5.32 5.33A1 1 0 0170.37 18.8zM20.3 68.87a1 1 0 01-.7-1.71l5.32-5.33a1 1 0 011.42 0 1 1 0 010 1.41L21 68.57A1 1 0 0120.3 68.87zM75.7 68.87a1 1 0 01-.71-.3l-5.35-5.34a1 1 0 111.42-1.42l5.34 5.35A1 1 0 0175.7 68.87zM25.63 18.8a1 1 0 01-.71-.29L19.6 13.18A1 1 0 1121 11.77l5.33 5.32A1 1 0 0125.63 18.8zM87.17 41.17H79.63a1 1 0 010-2h7.54a1 1 0 010 2zM16.37 41.17H8.83a1 1 0 110-2h7.54a1 1 0 110 2zM48 9.54a1 1 0 01-1-1V1a1 1 0 012 0V8.54A1 1 0 0148 9.54zM35.6 12.06a1 1 0 01-.89-.55l-2-4.07a1 1 0 111.79-.9l2 4.07A1 1 0 0135.6 12.06zM18.36 30.09c-.36 0-.17 0-4.77-2.44a1 1 0 01-.4-1.36 1 1 0 011.36-.4l4.29 2.32A1 1 0 0118.36 30.09zM14.35 55.42a1 1 0 01-.51-1.87L18.11 51a1 1 0 011 1.73C14.55 55.46 14.73 55.42 14.35 55.42zM60.57 12.06a1 1 0 01-.89-1.45l2-4.07a1 1 0 011.35-.45 1 1 0 01.44 1.35l-2 4.07A1 1 0 0160.57 12.06zM77.81 30.09a1 1 0 01-.48-1.88l4.3-2.32a1 1 0 011.35.4 1 1 0 01-.4 1.36C77.86 30.2 78.16 30.09 77.81 30.09zM81.82 55.42c-.39 0-.22 0-4.77-2.65a1 1 0 01-.35-1.37A1 1 0 0178.06 51l4.27 2.51A1 1 0 0181.82 55.42z"></path>
  <path fill="#3f416f" d="M36.33 82.64a1 1 0 01-.12-2l23.34-2.86a1 1 0 01.24 2C35.3 82.77 36.43 82.64 36.33 82.64zM36.71 87a1 1 0 01-.12-2l23-2.82a1 1 0 011.11.87 1 1 0 01-.87 1.12C35.16 87.18 36.81 87 36.71 87z"></path>
</svg>
