<svg viewBox="0 0 512 512" xmlns="http://www.w3.org/2000/svg" fill-rule="evenodd" clip-rule="evenodd" stroke-linejoin="round" stroke-miterlimit="2"><g fill-rule="nonzero"><path d="M16.007 83.654C41.9 68.055 67.74 52.334 93.743 36.911c.055 119.407-.136 238.814.096 358.221-11.781 7.323-23.767 14.304-35.575 21.545-14.1 8.413-28.09 17.017-42.216 25.362-.096-119.462-.014-238.923-.041-358.385z" fill="#7dc6dd"/><path d="M93.743 36.911c113.271-.19 226.556-.027 339.84-.081 13.99-.846 27.122 11.099 27.176 25.185.26 18.53.028 37.075.11 55.62-.028 92.476.054 184.939-.042 277.416-122.325.136-244.663-.028-366.988.081-.232-119.407-.041-238.814-.096-358.22m80.819 80c-.096 66.255-.014 132.51-.041 198.766h42.952c.013-43.88 0-87.759 0-131.638 12.081 43.743 23.112 87.8 34.852 131.638 15.559.027 31.13-.055 46.689.04 11.208-41.97 21.967-84.077 33.284-126.033.137 41.997 0 83.995.055 125.979 15.79.027 31.58.014 47.37.014.082-66.201-.11-132.402.095-198.603-20.29-.313-40.593-.054-60.883-.136-13.799 52.81-27.748 105.58-41.765 158.323-13.513-52.715-26.494-105.567-39.844-158.323-20.93-.027-41.847.027-62.764-.027z" fill="#37a5cc"/><path d="M174.562 116.912c20.917.054 41.834 0 62.764.027 13.35 52.756 26.33 105.608 39.844 158.323 14.017-52.743 27.966-105.513 41.765-158.323 20.29.082 40.594-.177 60.883.136-.204 66.201-.013 132.402-.095 198.603-15.79 0-31.58.013-47.37-.014-.055-41.984.082-83.982-.055-125.98-11.317 41.957-22.076 84.064-33.284 126.035-15.558-.096-31.13-.014-46.689-.041-11.74-43.839-22.771-87.895-34.852-131.638 0 43.879.013 87.758 0 131.638H174.52c.027-66.256-.055-132.511.04-198.766z" fill="#fff"/><path d="M460.868 117.634c11.7-.013 23.399-.013 35.112 0-.068 119.189.15 238.391-.11 357.58H85.072c-4.881-.682-9.94-1.432-14.208-4.077-7.622-4.431-12.654-13.035-12.586-21.885-.054-10.854.055-21.721-.013-32.575 11.808-7.24 23.794-14.222 35.575-21.545 122.325-.109 244.663.055 366.988-.081.096-92.477.014-184.94.041-277.417z" fill="#36697f"/></g></svg>