<svg xmlns="http://www.w3.org/2000/svg" enable-background="new 0 0 512 512" viewBox="0 0 512 512" id="code">
  <g>
    <g>
      <linearGradient id="a" x1="285.521" x2="226.015" y1="-214.7" y2="892.124" gradientUnits="userSpaceOnUse">
        <stop offset="0" stop-color="#eae9fe"></stop>
        <stop offset=".424" stop-color="#eeeefe"></stop>
        <stop offset=".897" stop-color="#fbfbff"></stop>
        <stop offset="1" stop-color="#fff"></stop>
      </linearGradient>
      <path fill="url(#a)" d="M472.914,264.434c-9.683-7.535-21.378-14.027-25.882-25.439
			c-6.125-15.52,3.665-32.176,9.439-47.831c17.628-47.798-4.997-104.402-45.589-135.186
			C333.443-2.749,182.282,17.836,161.159,99.006c-8.936,34.337,7.073,73.513-9.306,104.987
			c-20.667,39.713-75.492,42.391-110.802,60.05c-43.746,21.878-52.499,69.515-21.125,105.783
			c11.521,13.318,26.263,22.493,36.829,37.044c15.288,21.055,23.863,44.338,44.319,61.705c28.805,24.456,76.964,30.52,102.464,2.636
			c14.36-15.702,19.032-38.836,34.706-53.226c20.633-18.942,53.243-16.394,79.499-6.639c26.255,9.754,50.606,25.505,78.261,29.944
			c43.239,6.94,89.602-18.431,107.066-58.591C520.534,342.539,507.476,291.328,472.914,264.434z"></path>
      <path fill="#ededed" d="M502.762,376.048c0,31.991-25.917,57.908-57.907,57.908H76.311
			c-31.991,0-57.908-25.917-57.908-57.908H502.762z"></path>
      <path fill="#386e93" d="M477.223,96.351v279.709H43.942V96.351c0-10.449,8.471-18.92,18.92-18.92h395.441
			C468.753,77.43,477.223,85.901,477.223,96.351z"></path>
      <path fill="#ededed" d="M77.999,334.436V119.055c0-4.18,3.388-7.568,7.568-7.568h350.032c4.18,0,7.568,3.388,7.568,7.568
			v215.381c0,4.18-3.388,7.568-7.568,7.568H85.567C81.388,342.004,77.999,338.615,77.999,334.436z"></path>
      <path fill="#dbdbdb" d="M338.462,376.059c0,15.102-12.219,27.321-27.321,27.321H210.03
			c-15.102,0-27.322-12.219-27.322-27.321H338.462z"></path>
      <path fill="#332e8e" d="M435.6,106.577H85.566c-6.88,0-12.478,5.598-12.478,12.478v215.38
			c0,6.88,5.598,12.478,12.478,12.478H435.6c6.88,0,12.478-5.598,12.478-12.478v-215.38
			C448.078,112.175,442.48,106.577,435.6,106.577z M438.257,334.435c0,1.464-1.193,2.657-2.657,2.657H85.566
			c-1.464,0-2.657-1.193-2.657-2.657v-215.38c0-1.464,1.193-2.657,2.657-2.657H435.6c1.464,0,2.657,1.193,2.657,2.657V334.435z"></path>
      <path fill="#332e8e" d="M458.302,72.52H62.863c-13.14,0-23.831,10.691-23.831,23.831v274.787H18.405
			c-2.711,0-4.911,2.2-4.911,4.911c0,34.637,28.179,62.817,62.817,62.817h368.545c34.637,0,62.816-28.179,62.816-62.817
			c0-2.711-2.2-4.911-4.911-4.911h-20.628V96.351C482.134,83.211,471.442,72.52,458.302,72.52z M48.854,96.351
			c0-7.724,6.285-14.01,14.01-14.01h395.439c7.724,0,14.01,6.285,14.01,14.01v274.787H48.854V96.351z M333.008,380.969
			c-2.244,10.004-11.196,17.501-21.868,17.501H210.029c-10.669,0-19.621-7.497-21.868-17.501H333.008z M444.855,429.044H76.31
			c-27.565,0-50.284-21.155-52.768-48.084h20.306c0.033,0.001,0.062,0.01,0.095,0.01h134.271
			c2.377,15.444,15.716,27.322,31.815,27.322H311.14c16.099,0,29.441-11.878,31.818-27.322h134.264c0.033,0,0.062-0.009,0.095-0.01
			h20.306C495.139,407.888,472.421,429.044,444.855,429.044z"></path>
      <path fill="#332e8e" d="M200.831 225.382l25.526-25.526c1.918-1.918 1.918-5.026 0-6.944s-5.026-1.918-6.944 0l-29.001 29.001c-.921.921-1.439 2.171-1.439 3.475 0 1.301.518 2.551 1.442 3.472l29.062 29.004c.959.956 2.212 1.435 3.469 1.435 1.26 0 2.516-.48 3.475-1.442 1.915-1.918 1.912-5.029-.006-6.944L200.831 225.382zM332.193 225.389c0-1.304-.518-2.554-1.439-3.475l-29.001-29.001c-1.918-1.918-5.026-1.918-6.944 0-1.918 1.918-1.918 5.026 0 6.944l25.526 25.526-25.583 25.532c-1.918 1.915-1.921 5.026-.006 6.944.959.962 2.216 1.442 3.475 1.442 1.256 0 2.51-.48 3.469-1.435l29.062-29.004C331.675 227.94 332.193 226.69 332.193 225.389zM285.794 147.966c-2.59-.842-5.352.572-6.193 3.149l-47.378 145.498c-.838 2.58.572 5.352 3.149 6.193.505.163 1.02.24 1.522.24 2.069 0 3.993-1.317 4.671-3.389l47.378-145.501C289.78 151.577 288.37 148.805 285.794 147.966zM106.855 148.375h95.548c2.711 0 4.911-2.198 4.911-4.911s-2.2-4.911-4.911-4.911h-95.548c-2.711 0-4.911 2.198-4.911 4.911S104.144 148.375 106.855 148.375zM106.855 190.604h57.708c2.711 0 4.911-2.198 4.911-4.911s-2.2-4.911-4.911-4.911h-57.708c-2.711 0-4.911 2.198-4.911 4.911S104.144 190.604 106.855 190.604zM106.855 232.831h38.787c2.711 0 4.911-2.2 4.911-4.911s-2.2-4.911-4.911-4.911h-38.787c-2.711 0-4.911 2.2-4.911 4.911S104.144 232.831 106.855 232.831zM106.855 275.062h57.708c2.711 0 4.911-2.2 4.911-4.911 0-2.711-2.2-4.911-4.911-4.911h-57.708c-2.711 0-4.911 2.2-4.911 4.911C101.945 272.862 104.144 275.062 106.855 275.062zM202.404 307.471h-95.548c-2.711 0-4.911 2.2-4.911 4.911 0 2.711 2.2 4.911 4.911 4.911h95.548c2.711 0 4.911-2.2 4.911-4.911C207.314 309.67 205.115 307.471 202.404 307.471zM414.31 138.554h-95.548c-2.711 0-4.911 2.198-4.911 4.911s2.2 4.911 4.911 4.911h95.548c2.711 0 4.911-2.198 4.911-4.911S417.022 138.554 414.31 138.554zM414.31 180.783h-57.708c-2.711 0-4.911 2.198-4.911 4.911s2.2 4.911 4.911 4.911h57.708c2.711 0 4.911-2.198 4.911-4.911S417.022 180.783 414.31 180.783zM414.31 223.01h-38.787c-2.711 0-4.911 2.2-4.911 4.911s2.2 4.911 4.911 4.911h38.787c2.711 0 4.911-2.2 4.911-4.911S417.022 223.01 414.31 223.01zM414.31 265.24h-57.708c-2.711 0-4.911 2.2-4.911 4.911 0 2.711 2.2 4.911 4.911 4.911h57.708c2.711 0 4.911-2.2 4.911-4.911C419.221 267.44 417.022 265.24 414.31 265.24zM414.31 307.471h-95.548c-2.711 0-4.911 2.2-4.911 4.911 0 2.711 2.2 4.911 4.911 4.911h95.548c2.711 0 4.911-2.2 4.911-4.911C419.221 309.67 417.022 307.471 414.31 307.471z"></path>
    </g>
  </g>
</svg>
