<svg xmlns="http://www.w3.org/2000/svg" viewBox="0 0 69 69" id="premium-quality">
  <path fill="#71C7E5" d="M37.519 48.207 31.635 62.26c-.353.864-1.419.922-1.659.084l-1.05-3.656c-.157-.534-.688-.751-1.175-.48l-3.309 1.876c-.757.43-1.478-.357-1.125-1.221l5.884-14.052 8.318 3.397z"></path>
  <path fill="#71C7E5" d="m40.968 44.23 4.12 19.126c.196.913-.652 1.56-1.322 1.004l-2.927-2.43c-.43-.353-.992-.233-1.24.266l-1.679 3.413c-.384.782-1.422.538-1.617-.375l-4.12-19.126 8.785-1.878z"></path>
  <path fill="#FFCA78" d="M57.882 30.38c0 1.011-.74 2.032-2.021 2.022h-.01c-1.871 0-2.722 2.34-1.281 3.541.52.43.74.98.74 1.51 0 1.261-1.23 2.462-2.71 1.912-.241-.09-.481-.13-.711-.13-1.44 0-2.531 1.62-1.71 3.02.2.351.29.691.29 1.031 0 1.531-1.902 2.702-3.312 1.501-.39-.33-.84-.48-1.28-.48-1.151 0-2.232 1.03-1.992 2.37.03.141.04.271.04.411 0 1.931-2.7 2.771-3.741.94a1.962 1.962 0 0 0-1.731-1.02c-.9 0-1.8.6-1.981 1.67-.19 1.111-1.08 1.672-1.97 1.672-.901 0-1.792-.56-1.982-1.671-.18-1.07-1.08-1.67-1.98-1.67-.67 0-1.341.33-1.731 1.02-.4.71-1.05 1.01-1.701 1.01-1.14 0-2.261-.95-2.001-2.361.02-.13.03-.25.03-.37 0-1.641-1.97-2.651-3.302-1.52-.41.35-.85.49-1.28.49-1.39 0-2.611-1.541-1.74-3.022.2-.33.28-.68.28-1.01 0-1.291-1.301-2.402-2.702-1.881-.25.09-.5.14-.73.14-1.721 0-2.771-2.291-1.24-3.562.5-.42.72-.97.72-1.52 0-1.031-.78-2.031-2.011-2.021h-.02c-2.231 0-2.782-3.122-.67-3.882.89-.32 1.33-1.1 1.33-1.88 0-.791-.44-1.582-1.33-1.892-.911-.33-1.331-1.09-1.331-1.86 0-1.011.74-2.032 2.02-2.022h.01c1.871 0 2.722-2.34 1.281-3.541-.52-.43-.74-.98-.74-1.51 0-1.261 1.23-2.462 2.711-1.912.24.09.48.13.71.13 1.441 0 2.532-1.62 1.711-3.02-.2-.351-.29-.691-.29-1.031 0-1.531 1.9-2.702 3.311-1.501.39.33.84.48 1.281.48 1.15 0 2.231-1.03 1.99-2.37-.029-.14-.04-.271-.04-.411 0-1.93 2.702-2.771 3.743-.94.39.69 1.06 1.02 1.73 1.02.9 0 1.801-.6 1.981-1.67.19-1.111 1.08-1.662 1.981-1.662.89 0 1.78.55 1.971 1.661.31 1.851 2.781 2.291 3.712.65.4-.71 1.05-1.01 1.7-1.01 1.14 0 2.261.95 2.001 2.361-.02.13-.03.25-.03.37 0 1.641 1.971 2.651 3.302 1.52.41-.35.85-.49 1.28-.49 1.39 0 2.611 1.541 1.741 3.022-.2.33-.28.68-.28 1.01 0 1.291 1.3 2.402 2.701 1.881.25-.09.5-.14.73-.14 1.721 0 2.772 2.291 1.241 3.562-.5.42-.72.97-.72 1.52 0 1.031.78 2.031 2.01 2.021h.02c2.232 0 2.782 3.122.67 3.882-.88.31-1.33 1.1-1.33 1.891 0 .78.45 1.56 1.33 1.88.911.331 1.332 1.091 1.332 1.862z"></path>
  <path fill="#EFEFEF" d="M52.08 26.639c0 9.71-7.874 17.59-17.584 17.59s-17.583-7.88-17.583-17.59S24.786 9.056 34.496 9.056 52.08 16.929 52.08 26.639z"></path>
  <path fill="#9DE0EE" d="m20.262 24.356 14.157 14.21 14.311-14.21-8.463 2.617H28.674z"></path>
  <path fill="#9DE0EE" d="m20.262 24.356 6.207-5.358h16.055l6.206 5.358-8.463 2.617H28.674z"></path>
  <path fill="#9DE0EE" d="m34.419 38.566 5.848-11.593-5.771-7.975-5.822 7.975z"></path>
  <path fill="#414141" d="M43.041 53.8a.5.5 0 0 0-.384.594l.5 2.33a.5.5 0 1 0 .978-.209l-.5-2.33a.502.502 0 0 0-.594-.385z"></path>
  <path fill="#414141" d="M56.726 28.054c-1.37-.5-1.32-2.374-.01-2.84 2.628-.94 1.98-4.85-.87-4.85-1.395 0-2.037-1.745-.96-2.65 2.118-1.765.28-5.222-2.46-4.28-1.275.476-2.545-.929-1.82-2.17 1.438-2.418-1.668-4.994-3.77-3.16-1.05.862-2.627.073-2.46-1.42.51-2.776-3.241-4.106-4.63-1.69-.695 1.234-2.556.89-2.78-.49-.486-2.777-4.457-2.763-4.94 0-.228 1.4-2.095 1.733-2.78.49-1.405-2.474-5.207-1.007-4.63 1.68.252 1.418-1.418 2.31-2.46 1.43-1.66-1.447-4.13-.168-4.13 1.88 0 1.29 1.02 1.625.37 2.78-.756 1.307-2.008.5-2.74.5-2.243 0-3.399 2.94-1.55 4.45 1.066.885.462 2.65-.99 2.65-2.754 0-3.512 3.874-.84 4.86 1.312.443 1.354 2.329 0 2.83-2.626.938-1.988 4.85.88 4.85 1.38 0 2.027 1.744.95 2.65-2.113 1.76-.286 5.224 2.46 4.28 1.302-.487 2.545.978 1.82 2.17-1.059 1.778.359 3.77 2.17 3.77 1.369 0 1.574-.97 2.56-.97.785 0 1.624.657 1.5 1.78-.28 1.52.751 2.703 2.07 2.92l-3.83 9.17c-.21.5-.16 1.05.11 1.46 1.367 2.015 5.14-2.502 5.48-1.31l1.05 3.66c.384 1.31 2.085 1.256 2.6-.03l2.05-4.89c1.723 6.66 1.166 9.01 3.08 9.01 1.274 0 1.297-1.45 2.82-4.15.05-.1.12-.17.21-.19.08-.02.18.01.26.08l2.93 2.43c.45.37 1.02.43 1.5.14.52-.32.77-.97.63-1.63l-.94-4.41a.498.498 0 0 0-.59-.38c-.27.05-.45.32-.39.59l.94 4.41c.06.28-.04.49-.17.57-.11.06-.22.04-.34-.06l-2.93-2.43c-.33-.27-.73-.37-1.11-.29-.38.08-.71.35-.9.72-2.798 5.503-1.62 5.697-4.33-6.02l-1.13-5.23c1.422.474 3.02-.36 3.28-1.96.128-.805.818-1.26 1.49-1.26 1.509 0 1.204 1.82 3.15 2.02.527 1.791.316 3.115 1.15 2.93.822-.153.09-1.324-.15-3.02 1.297-.375 2.034-1.607 1.77-2.84-.252-1.416 1.426-2.303 2.46-1.43 2.074 1.81 5.202-.653 3.77-3.16-.719-1.232.529-2.645 1.82-2.17 2.679.982 4.608-2.516 2.46-4.27-1.066-.904-.461-2.66.99-2.66 2.77 0 3.517-3.883.85-4.85zm-22.95 27.81-2.6 6.21c-.22.53-.63.45-.72.13-.978-2.652-.73-4.61-2.28-4.61-1.075 0-5.113 3.393-4.4 1.46l4.03-9.61c.6-.17 1.11-.58 1.44-1.17.684-1.243 2.552-.91 2.78.49.07.44.24.81.46 1.1l1.29 6zm22.08-23.96c-2.343 0-3.413 2.935-1.6 4.42 1.282 1.087.122 3.16-1.48 2.57-1.13-.42-2.44.06-3.05 1.12-.897 1.589.24 2.414.24 3.27 0 1.12-1.385 2.04-2.49 1.12-1.747-1.479-4.514.026-4.08 2.38.34 1.535-1.872 2.527-2.78 1-1.114-1.98-4.152-1.628-4.64.81-.289 1.676-2.67 1.69-2.96 0a2.494 2.494 0 0 0-4.64-.81c-.808 1.44-3.086.689-2.77-1.03.311-2.49-2.39-3.792-4.09-2.35-1.24 1.055-3.152-.421-2.27-1.89 1.158-1.914-.719-4.443-3.02-3.62-1.657.599-2.762-1.51-1.48-2.57 1.765-1.462.778-4.42-1.63-4.42-1.679 0-2.081-2.353-.5-2.91 2.252-.834 2.17-3.96 0-4.72-1.59-.56-1.191-2.91.53-2.91 2.341 0 3.39-2.936 1.6-4.42-1.285-1.066-.15-3.167 1.47-2.57 2.15.806 4.236-1.565 3.03-3.61-.832-1.442.926-3.02 2.27-1.9 1.747 1.478 4.513-.027 4.08-2.38-.21-.939.575-1.76 1.51-1.76 1.512 0 1.263 2.04 3.43 2.04 1.25 0 2.27-.86 2.48-2.09.27-1.654 2.685-1.681 2.96 0 .399 2.336 3.497 2.841 4.64.81.793-1.415 3.094-.687 2.78 1.03-.425 2.265 2.246 3.879 4.09 2.35.73-.63 1.84-.38 2.3.43.631 1.095-.39 1.42-.39 2.73 0 1.72 1.77 2.978 3.37 2.35 1.05-.38 1.73.28 1.95.92.589 1.607-1.37 1.579-1.37 3.55 0 1.24.94 2.52 2.53 2.52 1.693 0 2.085 2.348.51 2.91-2.188.78-2.26 3.887-.01 4.72 1.614.567 1.185 2.91-.52 2.91z"></path>
  <path fill="#414141" d="M34.496 8.554c-9.97 0-18.08 8.11-18.08 18.09 0 9.97 8.11 18.09 18.08 18.09 9.938 0 18.08-8.094 18.08-18.09 0-9.98-8.11-18.09-18.08-18.09zm0 35.18c-9.42 0-17.08-7.67-17.08-17.09s7.66-17.09 17.08-17.09c9.42 0 17.08 7.67 17.08 17.09s-7.66 17.09-17.08 17.09z"></path>
  <path fill="#414141" d="M42.526 18.504h-16.06c-.12 0-.23.04-.32.12l-6.21 5.35c-.194.193-.201.464-.13.57.031.094.112.18.12.18l14.13 14.18c.1.053.389.35.72.02l14.32-14.22c.166-.208.194-.496-.04-.73l-6.21-5.35a.472.472 0 0 0-.32-.12zm-3.07 8.97-5.03 9.97-4.95-9.97h9.98zm-9.8-1 4.84-6.62 4.79 6.62h-9.63zm-3-6.97h6.86l-5.03 6.89-7.22-2.25 5.39-4.64zm-4.61 5.93 6.28 1.96 4.29 8.66-10.57-10.62zm14.2 10.62 4.38-8.66 6.31-1.96-10.69 10.62zm4.22-9.66-4.98-6.89h6.85l5.38 4.64-7.25 2.25z"></path>
</svg>
